<svg width="288" height="76" viewBox="0 0 288 76" fill="none" xmlns="http://www.w3.org/2000/svg">
<g clip-path="url(#clip0_37_30)">
<path d="M71.8677 56.6244V6.30823H98.0735V12.6165H77.2941V28.0869H95.9559V34.3952H77.2941V50.1659H99.5294V56.4742H71.8677V56.6244Z" fill="#E43225"/>
<path d="M127.058 56.6245L118.058 43.2569L109.058 56.6245H102.705L115.014 38.751L102.044 20.2767H109.191L118.058 34.0948L127.058 20.2767H134.073L121.764 38.751L133.411 56.6245H127.058Z" fill="#E43225"/>
<path d="M142.147 51.2173V76H136.72V38.9011C136.72 29.4387 143.073 19.3754 153 19.3754C163.058 19.3754 170.603 26.5849 170.603 38.4505C170.603 50.0157 162.926 57.9762 154.191 57.9762C149.956 57.9762 144.264 55.8735 142.147 51.2173V51.2173ZM164.911 38.4505C164.911 30.3398 160.279 25.5335 152.073 25.9841C148.103 26.1343 142.014 29.4387 142.544 41.0039C142.676 44.7588 146.117 51.8181 153.661 51.8181C160.147 51.8181 164.911 47.6126 164.911 38.4505V38.4505Z" fill="#E43225"/>
<path d="M175.234 56.6244V20.2766H180.661V24.1817C183.308 20.7272 187.411 19.5256 191.779 19.5256V26.1343C191.117 25.9841 184.631 25.0829 180.661 34.6956V56.7746H175.234V56.6244Z" fill="#E43225"/>
<path d="M193.235 38.4505C193.235 27.9367 199.853 19.3754 208.985 19.3754C220.367 19.3754 224.603 27.9367 224.603 38.9011V41.9051H199.191C199.588 48.8142 205.014 52.4189 210.044 52.2687C213.75 52.1185 216.264 50.9169 218.911 47.913L222.485 52.1185C219.176 55.7232 214.941 58.1264 209.779 58.1264C200.117 57.9762 193.235 49.8655 193.235 38.4505V38.4505ZM208.588 25.5335C203.426 25.5335 199.455 30.6402 199.191 36.1976H218.911C218.911 30.7904 215.47 25.5335 208.588 25.5335V25.5335Z" fill="#E43225"/>
<path d="M227.384 51.5177L231.355 47.4624C231.223 47.4624 233.34 49.8655 233.605 50.0157C234.531 50.9169 235.458 51.5177 236.649 51.8181C240.09 52.8695 246.311 52.5691 246.84 47.162C247.105 44.158 245.12 42.5058 242.87 41.4545C239.958 40.2529 236.781 39.8023 233.87 38.3003C230.561 36.6481 228.443 33.7944 228.443 29.5888C228.443 18.6244 242.208 16.822 248.428 21.9288C248.693 22.2292 251.737 25.3833 251.605 25.3833L247.634 28.988C245.649 26.2845 243.796 24.9327 239.561 24.9327C237.443 24.9327 234.531 25.9841 234.002 28.5375C233.208 32.1422 236.781 33.494 239.164 34.245C242.34 35.1461 245.781 35.7469 248.561 37.6995C252.399 40.4031 253.325 46.2608 251.87 50.7667C250.281 55.7232 245.517 57.6758 241.281 57.826C236.252 58.1264 231.884 56.324 228.311 52.2687C228.046 52.2687 227.384 51.5177 227.384 51.5177V51.5177Z" fill="#E43225"/>
<path d="M255.309 51.5177L259.279 47.4624C259.147 47.4624 261.264 49.8655 261.529 50.0157C262.456 50.9169 263.382 51.5177 264.573 51.8181C268.014 52.8695 274.235 52.5691 274.764 47.162C275.029 44.158 273.044 42.5058 270.794 41.4545C267.882 40.2529 264.706 39.8023 261.794 38.3003C258.485 36.6481 256.367 33.7944 256.367 29.5888C256.367 18.6244 270.132 16.822 276.353 21.9288C276.617 22.2292 279.662 25.3833 279.529 25.3833L275.559 28.988C273.573 26.2845 271.72 24.9327 267.485 24.9327C265.367 24.9327 262.456 25.9841 261.926 28.5375C261.132 32.1422 264.706 33.494 267.088 34.245C270.264 35.1461 273.706 35.7469 276.485 37.6995C280.323 40.4031 281.25 46.2608 279.794 50.7667C278.206 55.7232 273.441 57.6758 269.206 57.826C264.176 58.1264 259.809 56.324 256.235 52.2687C255.97 52.2687 255.309 51.5177 255.309 51.5177V51.5177Z" fill="#E43225"/>
<path d="M281.118 20.2766V16.3715H279.927V15.6205H283.103V16.3715H281.912V20.2766H281.118Z" fill="#E43225"/>
<path d="M287.073 20.2766V16.6719L285.882 20.2766H285.617L284.426 16.6719V20.2766H283.764V15.6205H284.823L285.882 18.7746L286.941 15.6205H288V20.2766H287.073Z" fill="#E43225"/>
<path d="M35.0735 56.6244L31.1029 44.6086H9.66177L5.69118 56.6244H0L17.2059 6.30823H23.4265L40.5 56.6244H35.0735ZM20.1176 13.5177L12.0441 38.4505H28.8529L20.1176 13.5177Z" fill="white"/>
<path d="M44.0732 56.6244V6.30823H49.6321V56.6244H44.0732Z" fill="white"/>
<path d="M57.9719 56.6245V21.0276H63.5307V56.6245H57.9719Z" fill="white"/>
<path d="M68.8231 9.46243C68.8231 9.31223 68.8231 9.31224 68.8231 9.16204C68.8231 9.01184 68.8231 9.01185 68.8231 8.86165C64.5878 8.71145 61.1467 4.80632 61.0143 0C60.882 0 60.7496 0 60.6173 0C60.4849 0 60.3525 0 60.2202 0C60.0878 4.80632 56.6467 8.71145 52.4114 8.86165C52.4114 9.01185 52.4114 9.01184 52.4114 9.16204C52.4114 9.31224 52.4114 9.31223 52.4114 9.46243C56.6467 9.61263 60.0878 13.5178 60.2202 18.3241C60.3525 18.3241 60.4849 18.3241 60.6173 18.3241C60.7496 18.3241 60.882 18.3241 61.0143 18.3241C61.1467 13.5178 64.5878 9.61263 68.8231 9.46243Z" fill="white"/>
</g>
<defs>
<clipPath id="clip0_37_30">
<rect width="288" height="76" fill="white"/>
</clipPath>
</defs>
</svg>
