<svg width="267" height="71" viewBox="0 0 267 71" fill="none" xmlns="http://www.w3.org/2000/svg">
<path fill-rule="evenodd" clip-rule="evenodd" d="M0 4C0 1.79086 1.79086 0 4 0H263C265.209 0 267 1.79086 267 4V5C265.895 5 265 5.89543 265 7C265 8.10457 265.895 9 267 9V12C265.895 12 265 12.8954 265 14C265 15.1046 265.895 16 267 16V18C265.895 18 265 18.8954 265 20C265 21.1046 265.895 22 267 22V25C265.895 25 265 25.8954 265 27C265 28.1046 265.895 29 267 29V32C265.895 32 265 32.8954 265 34C265 35.1046 265.895 36 267 36V67C267 69.2091 265.209 71 263 71H4C1.79086 71 0 69.2091 0 67V36C1.10457 36 2 35.1046 2 34C2 32.8954 1.10457 32 0 32V29C1.10457 29 2 28.1046 2 27C2 25.8954 1.10457 25 0 25V22C1.10457 22 2 21.1046 2 20C2 18.8954 1.10457 18 0 18V16C1.10457 16 2 15.1046 2 14C2 12.8954 1.10457 12 0 12V9C1.10457 9 2 8.10457 2 7C2 5.89543 1.10457 5 0 5V4Z" fill="#651FFF"/>
<path d="M29.9561 30.5049H32.584C32.5312 31.3662 32.2939 32.1309 31.8721 32.7988C31.4561 33.4668 30.873 33.9883 30.123 34.3633C29.3789 34.7383 28.4824 34.9258 27.4336 34.9258C26.6133 34.9258 25.8779 34.7852 25.2275 34.5039C24.5771 34.2168 24.0205 33.8066 23.5576 33.2734C23.1006 32.7402 22.752 32.0957 22.5117 31.3398C22.2715 30.584 22.1514 29.7373 22.1514 28.7998V27.9121C22.1514 26.9746 22.2744 26.1279 22.5205 25.3721C22.7725 24.6104 23.1299 23.9629 23.5928 23.4297C24.0615 22.8965 24.6211 22.4863 25.2715 22.1992C25.9219 21.9121 26.6484 21.7686 27.4512 21.7686C28.5176 21.7686 29.417 21.9619 30.1494 22.3486C30.8877 22.7354 31.459 23.2686 31.8633 23.9482C32.2734 24.6279 32.5195 25.4014 32.6016 26.2686H29.9648C29.9355 25.7529 29.833 25.3164 29.6572 24.959C29.4814 24.5957 29.2148 24.3232 28.8574 24.1416C28.5059 23.9541 28.0371 23.8604 27.4512 23.8604C27.0117 23.8604 26.6279 23.9424 26.2998 24.1064C25.9717 24.2705 25.6963 24.5195 25.4736 24.8535C25.251 25.1875 25.084 25.6094 24.9727 26.1191C24.8672 26.623 24.8145 27.2148 24.8145 27.8945V28.7998C24.8145 29.4619 24.8643 30.0449 24.9639 30.5488C25.0635 31.0469 25.2158 31.4688 25.4209 31.8145C25.6318 32.1543 25.9014 32.4121 26.2295 32.5879C26.5635 32.7578 26.9648 32.8428 27.4336 32.8428C27.9844 32.8428 28.4385 32.7549 28.7959 32.5791C29.1533 32.4033 29.4258 32.1426 29.6133 31.7969C29.8066 31.4512 29.9209 31.0205 29.9561 30.5049ZM43.4824 25.2402V34.75H40.9424V25.2402H43.4824ZM46.541 25.2402V27.2002H37.9277V25.2402H46.541ZM51.5947 34.9258C50.8564 34.9258 50.1943 34.8086 49.6084 34.5742C49.0225 34.334 48.5244 34.0029 48.1143 33.5811C47.71 33.1592 47.3994 32.6699 47.1826 32.1133C46.9658 31.5508 46.8574 30.9531 46.8574 30.3203V29.9688C46.8574 29.248 46.96 28.5889 47.165 27.9912C47.3701 27.3936 47.6631 26.875 48.0439 26.4355C48.4307 25.9961 48.8994 25.6592 49.4502 25.4248C50.001 25.1846 50.6221 25.0645 51.3135 25.0645C51.9873 25.0645 52.585 25.1758 53.1064 25.3984C53.6279 25.6211 54.0645 25.9375 54.416 26.3477C54.7734 26.7578 55.043 27.25 55.2246 27.8242C55.4062 28.3926 55.4971 29.0254 55.4971 29.7227V30.7773H47.9385V29.0898H53.0098V28.8965C53.0098 28.5449 52.9453 28.2314 52.8164 27.9561C52.6934 27.6748 52.5059 27.4521 52.2539 27.2881C52.002 27.124 51.6797 27.042 51.2871 27.042C50.9531 27.042 50.666 27.1152 50.4258 27.2617C50.1855 27.4082 49.9893 27.6133 49.8369 27.877C49.6904 28.1406 49.5791 28.4512 49.5029 28.8086C49.4326 29.1602 49.3975 29.5469 49.3975 29.9688V30.3203C49.3975 30.7012 49.4502 31.0527 49.5557 31.375C49.667 31.6973 49.8223 31.9756 50.0215 32.21C50.2266 32.4443 50.4727 32.626 50.7598 32.7549C51.0527 32.8838 51.3838 32.9482 51.7529 32.9482C52.21 32.9482 52.6348 32.8604 53.0273 32.6846C53.4258 32.5029 53.7686 32.2305 54.0557 31.8672L55.2861 33.2031C55.0869 33.4902 54.8145 33.7656 54.4688 34.0293C54.1289 34.293 53.7188 34.5098 53.2383 34.6797C52.7578 34.8438 52.21 34.9258 51.5947 34.9258ZM58.9775 25.2402L60.5508 28.1318L62.168 25.2402H64.8662L62.1768 29.8896L64.9893 34.75H62.2822L60.5684 31.6914L58.8545 34.75H56.1475L58.96 29.8896L56.2705 25.2402H58.9775ZM72.6094 29.0811V31.0498H67.7754V29.0811H72.6094ZM68.6191 25.2402V34.75H66.0879V25.2402H68.6191ZM74.3232 25.2402V34.75H71.7832V25.2402H74.3232ZM78.8145 31.2168L82.0049 25.2402H84.5361V34.75H82.0049V28.7646L78.8145 34.75H76.2832V25.2402H78.8145V31.2168ZM94.5029 25.2402V34.75H91.9629V25.2402H94.5029ZM93.3076 29.3096V31.2871C93.1143 31.3867 92.8652 31.4805 92.5605 31.5684C92.2559 31.6562 91.9336 31.7266 91.5938 31.7793C91.2598 31.8262 90.9492 31.8496 90.6621 31.8496C89.748 31.8496 88.9629 31.7236 88.3066 31.4717C87.6562 31.2197 87.1553 30.8242 86.8037 30.2852C86.4521 29.7461 86.2764 29.0547 86.2764 28.2109V25.2314H88.8076V28.2109C88.8076 28.6387 88.8721 28.9756 89.001 29.2217C89.1299 29.4619 89.3291 29.6318 89.5986 29.7314C89.874 29.8252 90.2285 29.8721 90.6621 29.8721C90.9668 29.8721 91.2627 29.8486 91.5498 29.8018C91.8369 29.7549 92.124 29.6904 92.4111 29.6084C92.6982 29.5264 92.9971 29.4268 93.3076 29.3096ZM100.831 34.9258C100.093 34.9258 99.4307 34.8086 98.8447 34.5742C98.2588 34.334 97.7607 34.0029 97.3506 33.5811C96.9463 33.1592 96.6357 32.6699 96.4189 32.1133C96.2021 31.5508 96.0938 30.9531 96.0938 30.3203V29.9688C96.0938 29.248 96.1963 28.5889 96.4014 27.9912C96.6064 27.3936 96.8994 26.875 97.2803 26.4355C97.667 25.9961 98.1357 25.6592 98.6865 25.4248C99.2373 25.1846 99.8584 25.0645 100.55 25.0645C101.224 25.0645 101.821 25.1758 102.343 25.3984C102.864 25.6211 103.301 25.9375 103.652 26.3477C104.01 26.7578 104.279 27.25 104.461 27.8242C104.643 28.3926 104.733 29.0254 104.733 29.7227V30.7773H97.1748V29.0898H102.246V28.8965C102.246 28.5449 102.182 28.2314 102.053 27.9561C101.93 27.6748 101.742 27.4521 101.49 27.2881C101.238 27.124 100.916 27.042 100.523 27.042C100.189 27.042 99.9023 27.1152 99.6621 27.2617C99.4219 27.4082 99.2256 27.6133 99.0732 27.877C98.9268 28.1406 98.8154 28.4512 98.7393 28.8086C98.6689 29.1602 98.6338 29.5469 98.6338 29.9688V30.3203C98.6338 30.7012 98.6865 31.0527 98.792 31.375C98.9033 31.6973 99.0586 31.9756 99.2578 32.21C99.4629 32.4443 99.709 32.626 99.9961 32.7549C100.289 32.8838 100.62 32.9482 100.989 32.9482C101.446 32.9482 101.871 32.8604 102.264 32.6846C102.662 32.5029 103.005 32.2305 103.292 31.8672L104.522 33.2031C104.323 33.4902 104.051 33.7656 103.705 34.0293C103.365 34.293 102.955 34.5098 102.475 34.6797C101.994 34.8438 101.446 34.9258 100.831 34.9258ZM110.104 32.9482C110.414 32.9482 110.689 32.8896 110.93 32.7725C111.17 32.6494 111.357 32.4795 111.492 32.2627C111.633 32.04 111.706 31.7793 111.712 31.4805H114.094C114.088 32.1484 113.909 32.7432 113.558 33.2646C113.206 33.7803 112.734 34.1875 112.143 34.4863C111.551 34.7793 110.889 34.9258 110.156 34.9258C109.418 34.9258 108.773 34.8027 108.223 34.5566C107.678 34.3105 107.224 33.9707 106.86 33.5371C106.497 33.0977 106.225 32.5879 106.043 32.0078C105.861 31.4219 105.771 30.7949 105.771 30.127V29.8721C105.771 29.1982 105.861 28.5713 106.043 27.9912C106.225 27.4053 106.497 26.8955 106.86 26.4619C107.224 26.0225 107.678 25.6797 108.223 25.4336C108.768 25.1875 109.406 25.0645 110.139 25.0645C110.918 25.0645 111.601 25.2139 112.187 25.5127C112.778 25.8115 113.241 26.2393 113.575 26.7959C113.915 27.3467 114.088 28 114.094 28.7559H111.712C111.706 28.4395 111.639 28.1523 111.51 27.8945C111.387 27.6367 111.205 27.4316 110.965 27.2793C110.73 27.1211 110.44 27.042 110.095 27.042C109.726 27.042 109.424 27.1211 109.189 27.2793C108.955 27.4316 108.773 27.6426 108.645 27.9121C108.516 28.1758 108.425 28.4775 108.372 28.8174C108.325 29.1514 108.302 29.5029 108.302 29.8721V30.127C108.302 30.4961 108.325 30.8506 108.372 31.1904C108.419 31.5303 108.507 31.832 108.636 32.0957C108.771 32.3594 108.955 32.5674 109.189 32.7197C109.424 32.8721 109.729 32.9482 110.104 32.9482ZM118.26 25.2402V34.75H115.729V25.2402H118.26ZM124.438 25.2402L120.343 31.1904H117.812L117.504 28.8525H119.183L121.23 25.2402H124.438ZM121.345 34.75L119.007 30.7334L121.213 29.5117L124.737 34.75H121.345ZM128.209 31.2168L131.399 25.2402H133.931V34.75H131.399V28.7646L128.209 34.75H125.678V25.2402H128.209V31.2168ZM141.665 31.8408L144.161 25.2402H146.227L142.518 34.75H140.812L137.121 25.2402H139.187L141.665 31.8408ZM138.58 25.2402V34.75H136.049V25.2402H138.58ZM144.812 34.75V25.2402H147.343V34.75H144.812ZM160.438 25.2402V27.2266H155.833V25.2402H160.438ZM156.562 25.2402V34.75H154.031V25.2402H156.562ZM162.284 25.2402V34.75H159.744V25.2402H162.284ZM169.368 32.6055V28.3691C169.368 28.0645 169.318 27.8037 169.219 27.5869C169.119 27.3643 168.964 27.1914 168.753 27.0684C168.548 26.9453 168.281 26.8838 167.953 26.8838C167.672 26.8838 167.429 26.9336 167.224 27.0332C167.019 27.127 166.86 27.2646 166.749 27.4463C166.638 27.6221 166.582 27.8301 166.582 28.0703H164.051C164.051 27.666 164.145 27.2822 164.332 26.9189C164.52 26.5557 164.792 26.2363 165.149 25.9609C165.507 25.6797 165.932 25.46 166.424 25.3018C166.922 25.1436 167.479 25.0645 168.094 25.0645C168.832 25.0645 169.488 25.1875 170.062 25.4336C170.637 25.6797 171.088 26.0488 171.416 26.541C171.75 27.0332 171.917 27.6484 171.917 28.3867V32.4561C171.917 32.9775 171.949 33.4053 172.014 33.7393C172.078 34.0674 172.172 34.3545 172.295 34.6006V34.75H169.737C169.614 34.4922 169.521 34.1699 169.456 33.7832C169.397 33.3906 169.368 32.998 169.368 32.6055ZM169.702 28.958L169.72 30.3906H168.305C167.971 30.3906 167.681 30.4287 167.435 30.5049C167.188 30.5811 166.986 30.6895 166.828 30.8301C166.67 30.9648 166.553 31.123 166.477 31.3047C166.406 31.4863 166.371 31.6855 166.371 31.9023C166.371 32.1191 166.421 32.3154 166.521 32.4912C166.62 32.6611 166.764 32.7959 166.951 32.8955C167.139 32.9893 167.358 33.0361 167.61 33.0361C167.991 33.0361 168.322 32.96 168.604 32.8076C168.885 32.6553 169.102 32.4678 169.254 32.2451C169.412 32.0225 169.494 31.8115 169.5 31.6123L170.168 32.6846C170.074 32.9248 169.945 33.1738 169.781 33.4316C169.623 33.6895 169.421 33.9326 169.175 34.1611C168.929 34.3838 168.633 34.5684 168.287 34.7148C167.941 34.8555 167.531 34.9258 167.057 34.9258C166.453 34.9258 165.905 34.8057 165.413 34.5654C164.927 34.3193 164.54 33.9824 164.253 33.5547C163.972 33.1211 163.831 32.6289 163.831 32.0781C163.831 31.5801 163.925 31.1377 164.112 30.751C164.3 30.3643 164.575 30.0391 164.938 29.7754C165.308 29.5059 165.768 29.3037 166.318 29.1689C166.869 29.0283 167.508 28.958 168.234 28.958H169.702ZM176.399 27.0684V38.4062H173.868V25.2402H176.215L176.399 27.0684ZM182.42 29.8896V30.0742C182.42 30.7656 182.338 31.4072 182.174 31.999C182.016 32.5908 181.781 33.1064 181.471 33.5459C181.16 33.9795 180.773 34.3193 180.311 34.5654C179.854 34.8057 179.326 34.9258 178.729 34.9258C178.148 34.9258 177.645 34.8086 177.217 34.5742C176.789 34.3398 176.429 34.0117 176.136 33.5898C175.849 33.1621 175.617 32.667 175.441 32.1045C175.266 31.542 175.131 30.9385 175.037 30.2939V29.8105C175.131 29.1191 175.266 28.4863 175.441 27.9121C175.617 27.332 175.849 26.8311 176.136 26.4092C176.429 25.9814 176.786 25.6504 177.208 25.416C177.636 25.1816 178.137 25.0645 178.711 25.0645C179.314 25.0645 179.845 25.1787 180.302 25.4072C180.765 25.6357 181.151 25.9639 181.462 26.3916C181.778 26.8193 182.016 27.3291 182.174 27.9209C182.338 28.5127 182.42 29.1689 182.42 29.8896ZM179.88 30.0742V29.8896C179.88 29.4854 179.845 29.1133 179.774 28.7734C179.71 28.4277 179.604 28.126 179.458 27.8682C179.317 27.6104 179.13 27.4111 178.896 27.2705C178.667 27.124 178.389 27.0508 178.061 27.0508C177.715 27.0508 177.419 27.1064 177.173 27.2178C176.933 27.3291 176.736 27.4902 176.584 27.7012C176.432 27.9121 176.317 28.1641 176.241 28.457C176.165 28.75 176.118 29.0811 176.101 29.4502V30.6719C176.13 31.1055 176.212 31.4951 176.347 31.8408C176.481 32.1807 176.689 32.4502 176.971 32.6494C177.252 32.8486 177.621 32.9482 178.078 32.9482C178.412 32.9482 178.693 32.875 178.922 32.7285C179.15 32.5762 179.335 32.3682 179.476 32.1045C179.622 31.8408 179.725 31.5361 179.783 31.1904C179.848 30.8447 179.88 30.4727 179.88 30.0742ZM188.361 25.2402V34.75H185.821V25.2402H188.361ZM191.42 25.2402V27.2002H182.807V25.2402H191.42ZM199.225 29.0811V31.0498H194.391V29.0811H199.225ZM195.234 25.2402V34.75H192.703V25.2402H195.234ZM200.938 25.2402V34.75H198.398V25.2402H200.938ZM207.284 34.9258C206.546 34.9258 205.884 34.8086 205.298 34.5742C204.712 34.334 204.214 34.0029 203.804 33.5811C203.399 33.1592 203.089 32.6699 202.872 32.1133C202.655 31.5508 202.547 30.9531 202.547 30.3203V29.9688C202.547 29.248 202.649 28.5889 202.854 27.9912C203.06 27.3936 203.353 26.875 203.733 26.4355C204.12 25.9961 204.589 25.6592 205.14 25.4248C205.69 25.1846 206.312 25.0645 207.003 25.0645C207.677 25.0645 208.274 25.1758 208.796 25.3984C209.317 25.6211 209.754 25.9375 210.105 26.3477C210.463 26.7578 210.732 27.25 210.914 27.8242C211.096 28.3926 211.187 29.0254 211.187 29.7227V30.7773H203.628V29.0898H208.699V28.8965C208.699 28.5449 208.635 28.2314 208.506 27.9561C208.383 27.6748 208.195 27.4521 207.943 27.2881C207.691 27.124 207.369 27.042 206.977 27.042C206.643 27.042 206.355 27.1152 206.115 27.2617C205.875 27.4082 205.679 27.6133 205.526 27.877C205.38 28.1406 205.269 28.4512 205.192 28.8086C205.122 29.1602 205.087 29.5469 205.087 29.9688V30.3203C205.087 30.7012 205.14 31.0527 205.245 31.375C205.356 31.6973 205.512 31.9756 205.711 32.21C205.916 32.4443 206.162 32.626 206.449 32.7549C206.742 32.8838 207.073 32.9482 207.442 32.9482C207.899 32.9482 208.324 32.8604 208.717 32.6846C209.115 32.5029 209.458 32.2305 209.745 31.8672L210.976 33.2031C210.776 33.4902 210.504 33.7656 210.158 34.0293C209.818 34.293 209.408 34.5098 208.928 34.6797C208.447 34.8438 207.899 34.9258 207.284 34.9258ZM215.159 27.0684V38.4062H212.628V25.2402H214.975L215.159 27.0684ZM221.18 29.8896V30.0742C221.18 30.7656 221.098 31.4072 220.934 31.999C220.775 32.5908 220.541 33.1064 220.23 33.5459C219.92 33.9795 219.533 34.3193 219.07 34.5654C218.613 34.8057 218.086 34.9258 217.488 34.9258C216.908 34.9258 216.404 34.8086 215.977 34.5742C215.549 34.3398 215.188 34.0117 214.896 33.5898C214.608 33.1621 214.377 32.667 214.201 32.1045C214.025 31.542 213.891 30.9385 213.797 30.2939V29.8105C213.891 29.1191 214.025 28.4863 214.201 27.9121C214.377 27.332 214.608 26.8311 214.896 26.4092C215.188 25.9814 215.546 25.6504 215.968 25.416C216.396 25.1816 216.896 25.0645 217.471 25.0645C218.074 25.0645 218.604 25.1787 219.062 25.4072C219.524 25.6357 219.911 25.9639 220.222 26.3916C220.538 26.8193 220.775 27.3291 220.934 27.9209C221.098 28.5127 221.18 29.1689 221.18 29.8896ZM218.64 30.0742V29.8896C218.64 29.4854 218.604 29.1133 218.534 28.7734C218.47 28.4277 218.364 28.126 218.218 27.8682C218.077 27.6104 217.89 27.4111 217.655 27.2705C217.427 27.124 217.148 27.0508 216.82 27.0508C216.475 27.0508 216.179 27.1064 215.933 27.2178C215.692 27.3291 215.496 27.4902 215.344 27.7012C215.191 27.9121 215.077 28.1641 215.001 28.457C214.925 28.75 214.878 29.0811 214.86 29.4502V30.6719C214.89 31.1055 214.972 31.4951 215.106 31.8408C215.241 32.1807 215.449 32.4502 215.73 32.6494C216.012 32.8486 216.381 32.9482 216.838 32.9482C217.172 32.9482 217.453 32.875 217.682 32.7285C217.91 32.5762 218.095 32.3682 218.235 32.1045C218.382 31.8408 218.484 31.5361 218.543 31.1904C218.607 30.8447 218.64 30.4727 218.64 30.0742ZM222.349 30.0918V29.9072C222.349 29.21 222.448 28.5684 222.647 27.9824C222.847 27.3906 223.137 26.8779 223.518 26.4443C223.898 26.0107 224.367 25.6738 224.924 25.4336C225.48 25.1875 226.119 25.0645 226.84 25.0645C227.561 25.0645 228.202 25.1875 228.765 25.4336C229.327 25.6738 229.799 26.0107 230.18 26.4443C230.566 26.8779 230.859 27.3906 231.059 27.9824C231.258 28.5684 231.357 29.21 231.357 29.9072V30.0918C231.357 30.7832 231.258 31.4248 231.059 32.0166C230.859 32.6025 230.566 33.1152 230.18 33.5547C229.799 33.9883 229.33 34.3252 228.773 34.5654C228.217 34.8057 227.578 34.9258 226.857 34.9258C226.137 34.9258 225.495 34.8057 224.933 34.5654C224.376 34.3252 223.904 33.9883 223.518 33.5547C223.137 33.1152 222.847 32.6025 222.647 32.0166C222.448 31.4248 222.349 30.7832 222.349 30.0918ZM224.88 29.9072V30.0918C224.88 30.4902 224.915 30.8623 224.985 31.208C225.056 31.5537 225.167 31.8584 225.319 32.1221C225.478 32.3799 225.683 32.582 225.935 32.7285C226.187 32.875 226.494 32.9482 226.857 32.9482C227.209 32.9482 227.511 32.875 227.763 32.7285C228.015 32.582 228.217 32.3799 228.369 32.1221C228.521 31.8584 228.633 31.5537 228.703 31.208C228.779 30.8623 228.817 30.4902 228.817 30.0918V29.9072C228.817 29.5205 228.779 29.1572 228.703 28.8174C228.633 28.4717 228.519 28.167 228.36 27.9033C228.208 27.6338 228.006 27.4229 227.754 27.2705C227.502 27.1182 227.197 27.042 226.84 27.042C226.482 27.042 226.178 27.1182 225.926 27.2705C225.68 27.4229 225.478 27.6338 225.319 27.9033C225.167 28.167 225.056 28.4717 224.985 28.8174C224.915 29.1572 224.88 29.5205 224.88 29.9072ZM238.696 31.8408L241.192 25.2402H243.258L239.549 34.75H237.844L234.152 25.2402H236.218L238.696 31.8408ZM235.611 25.2402V34.75H233.08V25.2402H235.611ZM241.843 34.75V25.2402H244.374V34.75H241.843ZM91.3389 51.5049H93.9668C93.9141 52.3662 93.6768 53.1309 93.2549 53.7988C92.8389 54.4668 92.2559 54.9883 91.5059 55.3633C90.7617 55.7383 89.8652 55.9258 88.8164 55.9258C87.9961 55.9258 87.2607 55.7852 86.6104 55.5039C85.96 55.2168 85.4033 54.8066 84.9404 54.2734C84.4834 53.7402 84.1348 53.0957 83.8945 52.3398C83.6543 51.584 83.5342 50.7373 83.5342 49.7998V48.9121C83.5342 47.9746 83.6572 47.1279 83.9033 46.3721C84.1553 45.6104 84.5127 44.9629 84.9756 44.4297C85.4443 43.8965 86.0039 43.4863 86.6543 43.1992C87.3047 42.9121 88.0312 42.7686 88.834 42.7686C89.9004 42.7686 90.7998 42.9619 91.5322 43.3486C92.2705 43.7354 92.8418 44.2686 93.2461 44.9482C93.6562 45.6279 93.9023 46.4014 93.9844 47.2686H91.3477C91.3184 46.7529 91.2158 46.3164 91.04 45.959C90.8643 45.5957 90.5977 45.3232 90.2402 45.1416C89.8887 44.9541 89.4199 44.8604 88.834 44.8604C88.3945 44.8604 88.0107 44.9424 87.6826 45.1064C87.3545 45.2705 87.0791 45.5195 86.8564 45.8535C86.6338 46.1875 86.4668 46.6094 86.3555 47.1191C86.25 47.623 86.1973 48.2148 86.1973 48.8945V49.7998C86.1973 50.4619 86.2471 51.0449 86.3467 51.5488C86.4463 52.0469 86.5986 52.4688 86.8037 52.8145C87.0146 53.1543 87.2842 53.4121 87.6123 53.5879C87.9463 53.7578 88.3477 53.8428 88.8164 53.8428C89.3672 53.8428 89.8213 53.7549 90.1787 53.5791C90.5361 53.4033 90.8086 53.1426 90.9961 52.7969C91.1895 52.4512 91.3037 52.0205 91.3389 51.5049ZM95.1357 51.0918V50.9072C95.1357 50.21 95.2354 49.5684 95.4346 48.9824C95.6338 48.3906 95.9238 47.8779 96.3047 47.4443C96.6855 47.0107 97.1543 46.6738 97.7109 46.4336C98.2676 46.1875 98.9062 46.0645 99.627 46.0645C100.348 46.0645 100.989 46.1875 101.552 46.4336C102.114 46.6738 102.586 47.0107 102.967 47.4443C103.354 47.8779 103.646 48.3906 103.846 48.9824C104.045 49.5684 104.145 50.21 104.145 50.9072V51.0918C104.145 51.7832 104.045 52.4248 103.846 53.0166C103.646 53.6025 103.354 54.1152 102.967 54.5547C102.586 54.9883 102.117 55.3252 101.561 55.5654C101.004 55.8057 100.365 55.9258 99.6445 55.9258C98.9238 55.9258 98.2822 55.8057 97.7197 55.5654C97.1631 55.3252 96.6914 54.9883 96.3047 54.5547C95.9238 54.1152 95.6338 53.6025 95.4346 53.0166C95.2354 52.4248 95.1357 51.7832 95.1357 51.0918ZM97.667 50.9072V51.0918C97.667 51.4902 97.7021 51.8623 97.7725 52.208C97.8428 52.5537 97.9541 52.8584 98.1064 53.1221C98.2646 53.3799 98.4697 53.582 98.7217 53.7285C98.9736 53.875 99.2812 53.9482 99.6445 53.9482C99.9961 53.9482 100.298 53.875 100.55 53.7285C100.802 53.582 101.004 53.3799 101.156 53.1221C101.309 52.8584 101.42 52.5537 101.49 52.208C101.566 51.8623 101.604 51.4902 101.604 51.0918V50.9072C101.604 50.5205 101.566 50.1572 101.49 49.8174C101.42 49.4717 101.306 49.167 101.147 48.9033C100.995 48.6338 100.793 48.4229 100.541 48.2705C100.289 48.1182 99.9844 48.042 99.627 48.042C99.2695 48.042 98.9648 48.1182 98.7129 48.2705C98.4668 48.4229 98.2646 48.6338 98.1064 48.9033C97.9541 49.167 97.8428 49.4717 97.7725 49.8174C97.7021 50.1572 97.667 50.5205 97.667 50.9072ZM108.179 48.2705V55.75H105.647V46.2402H108.021L108.179 48.2705ZM107.81 50.6611H107.124C107.124 49.958 107.215 49.3252 107.396 48.7627C107.578 48.1943 107.833 47.7109 108.161 47.3125C108.489 46.9082 108.879 46.6006 109.33 46.3896C109.787 46.1729 110.297 46.0645 110.859 46.0645C111.305 46.0645 111.712 46.1289 112.081 46.2578C112.45 46.3867 112.767 46.5918 113.03 46.873C113.3 47.1543 113.505 47.5264 113.646 47.9893C113.792 48.4521 113.865 49.0176 113.865 49.6855V55.75H111.316V49.6768C111.316 49.2549 111.258 48.9268 111.141 48.6924C111.023 48.458 110.851 48.2939 110.622 48.2002C110.399 48.1006 110.124 48.0508 109.796 48.0508C109.456 48.0508 109.16 48.1182 108.908 48.2529C108.662 48.3877 108.457 48.5752 108.293 48.8154C108.135 49.0498 108.015 49.3252 107.933 49.6416C107.851 49.958 107.81 50.2979 107.81 50.6611ZM120.448 46.2402V48.0332H114.911V46.2402H120.448ZM116.282 43.8936H118.813V52.8848C118.813 53.1602 118.849 53.3711 118.919 53.5176C118.995 53.6641 119.106 53.7666 119.253 53.8252C119.399 53.8779 119.584 53.9043 119.807 53.9043C119.965 53.9043 120.105 53.8984 120.229 53.8867C120.357 53.8691 120.466 53.8516 120.554 53.834L120.562 55.6973C120.346 55.7676 120.111 55.8232 119.859 55.8643C119.607 55.9053 119.329 55.9258 119.024 55.9258C118.468 55.9258 117.981 55.835 117.565 55.6533C117.155 55.4658 116.839 55.167 116.616 54.7568C116.394 54.3467 116.282 53.8076 116.282 53.1396V43.8936ZM126.267 55.9258C125.528 55.9258 124.866 55.8086 124.28 55.5742C123.694 55.334 123.196 55.0029 122.786 54.5811C122.382 54.1592 122.071 53.6699 121.854 53.1133C121.638 52.5508 121.529 51.9531 121.529 51.3203V50.9688C121.529 50.248 121.632 49.5889 121.837 48.9912C122.042 48.3936 122.335 47.875 122.716 47.4355C123.103 46.9961 123.571 46.6592 124.122 46.4248C124.673 46.1846 125.294 46.0645 125.985 46.0645C126.659 46.0645 127.257 46.1758 127.778 46.3984C128.3 46.6211 128.736 46.9375 129.088 47.3477C129.445 47.7578 129.715 48.25 129.896 48.8242C130.078 49.3926 130.169 50.0254 130.169 50.7227V51.7773H122.61V50.0898H127.682V49.8965C127.682 49.5449 127.617 49.2314 127.488 48.9561C127.365 48.6748 127.178 48.4521 126.926 48.2881C126.674 48.124 126.352 48.042 125.959 48.042C125.625 48.042 125.338 48.1152 125.098 48.2617C124.857 48.4082 124.661 48.6133 124.509 48.877C124.362 49.1406 124.251 49.4512 124.175 49.8086C124.104 50.1602 124.069 50.5469 124.069 50.9688V51.3203C124.069 51.7012 124.122 52.0527 124.228 52.375C124.339 52.6973 124.494 52.9756 124.693 53.21C124.898 53.4443 125.145 53.626 125.432 53.7549C125.725 53.8838 126.056 53.9482 126.425 53.9482C126.882 53.9482 127.307 53.8604 127.699 53.6846C128.098 53.5029 128.44 53.2305 128.728 52.8672L129.958 54.2031C129.759 54.4902 129.486 54.7656 129.141 55.0293C128.801 55.293 128.391 55.5098 127.91 55.6797C127.43 55.8438 126.882 55.9258 126.267 55.9258ZM134.089 48.2705V55.75H131.558V46.2402H133.931L134.089 48.2705ZM133.72 50.6611H133.034C133.034 49.958 133.125 49.3252 133.307 48.7627C133.488 48.1943 133.743 47.7109 134.071 47.3125C134.399 46.9082 134.789 46.6006 135.24 46.3896C135.697 46.1729 136.207 46.0645 136.77 46.0645C137.215 46.0645 137.622 46.1289 137.991 46.2578C138.36 46.3867 138.677 46.5918 138.94 46.873C139.21 47.1543 139.415 47.5264 139.556 47.9893C139.702 48.4521 139.775 49.0176 139.775 49.6855V55.75H137.227V49.6768C137.227 49.2549 137.168 48.9268 137.051 48.6924C136.934 48.458 136.761 48.2939 136.532 48.2002C136.31 48.1006 136.034 48.0508 135.706 48.0508C135.366 48.0508 135.07 48.1182 134.818 48.2529C134.572 48.3877 134.367 48.5752 134.203 48.8154C134.045 49.0498 133.925 49.3252 133.843 49.6416C133.761 49.958 133.72 50.2979 133.72 50.6611ZM146.358 46.2402V48.0332H140.821V46.2402H146.358ZM142.192 43.8936H144.724V52.8848C144.724 53.1602 144.759 53.3711 144.829 53.5176C144.905 53.6641 145.017 53.7666 145.163 53.8252C145.31 53.8779 145.494 53.9043 145.717 53.9043C145.875 53.9043 146.016 53.8984 146.139 53.8867C146.268 53.8691 146.376 53.8516 146.464 53.834L146.473 55.6973C146.256 55.7676 146.021 55.8232 145.77 55.8643C145.518 55.9053 145.239 55.9258 144.935 55.9258C144.378 55.9258 143.892 55.835 143.476 55.6533C143.065 55.4658 142.749 55.167 142.526 54.7568C142.304 54.3467 142.192 53.8076 142.192 53.1396V43.8936ZM160.975 48.165V50.2217H154.295V48.165H160.975ZM155.077 42.9531V55.75H152.44V42.9531H155.077ZM162.855 42.9531V55.75H160.228V42.9531H162.855ZM170.616 53.4736V46.2402H173.147V55.75H170.766L170.616 53.4736ZM170.897 51.5225L171.645 51.5049C171.645 52.1377 171.571 52.7266 171.425 53.2715C171.278 53.8105 171.059 54.2793 170.766 54.6777C170.473 55.0703 170.104 55.3779 169.658 55.6006C169.213 55.8174 168.688 55.9258 168.085 55.9258C167.622 55.9258 167.194 55.8613 166.802 55.7324C166.415 55.5977 166.081 55.3896 165.8 55.1084C165.524 54.8213 165.308 54.4551 165.149 54.0098C164.997 53.5586 164.921 53.0166 164.921 52.3838V46.2402H167.452V52.4014C167.452 52.6826 167.484 52.9199 167.549 53.1133C167.619 53.3066 167.716 53.4648 167.839 53.5879C167.962 53.7109 168.105 53.7988 168.27 53.8516C168.439 53.9043 168.627 53.9307 168.832 53.9307C169.354 53.9307 169.764 53.8252 170.062 53.6143C170.367 53.4033 170.581 53.1162 170.704 52.7529C170.833 52.3838 170.897 51.9736 170.897 51.5225ZM175.081 42.25H177.612V53.5703L177.357 55.75H175.081V42.25ZM183.633 50.8984V51.083C183.633 51.792 183.557 52.4424 183.404 53.0342C183.258 53.626 183.029 54.1387 182.719 54.5723C182.408 55 182.021 55.334 181.559 55.5742C181.102 55.8086 180.562 55.9258 179.941 55.9258C179.361 55.9258 178.857 55.8086 178.43 55.5742C178.008 55.3398 177.653 55.0088 177.366 54.5811C177.079 54.1533 176.848 53.6523 176.672 53.0781C176.496 52.5039 176.364 51.877 176.276 51.1973V50.793C176.364 50.1133 176.496 49.4863 176.672 48.9121C176.848 48.3379 177.079 47.8369 177.366 47.4092C177.653 46.9814 178.008 46.6504 178.43 46.416C178.852 46.1816 179.35 46.0645 179.924 46.0645C180.551 46.0645 181.096 46.1846 181.559 46.4248C182.027 46.6592 182.414 46.9932 182.719 47.4268C183.029 47.8545 183.258 48.3643 183.404 48.9561C183.557 49.542 183.633 50.1895 183.633 50.8984ZM181.102 51.083V50.8984C181.102 50.5117 181.072 50.1484 181.014 49.8086C180.961 49.4629 180.867 49.1611 180.732 48.9033C180.598 48.6396 180.413 48.4316 180.179 48.2793C179.95 48.127 179.654 48.0508 179.291 48.0508C178.945 48.0508 178.652 48.1094 178.412 48.2266C178.172 48.3438 177.973 48.5078 177.814 48.7188C177.662 48.9297 177.548 49.1816 177.472 49.4746C177.396 49.7617 177.349 50.0781 177.331 50.4238V51.5752C177.349 52.0381 177.425 52.4482 177.56 52.8057C177.7 53.1572 177.911 53.4355 178.192 53.6406C178.479 53.8398 178.852 53.9395 179.309 53.9395C179.666 53.9395 179.962 53.8691 180.196 53.7285C180.431 53.5879 180.612 53.3887 180.741 53.1309C180.876 52.873 180.97 52.5713 181.022 52.2256C181.075 51.874 181.102 51.4932 181.102 51.083Z" fill="white"/>
</svg>
