<svg width="277" height="76" viewBox="0 0 277 76" fill="none" xmlns="http://www.w3.org/2000/svg">
<g clip-path="url(#clip0_37_30)">
<path d="M69.1226 56.6244V6.30823H94.3275V12.6165H74.3418V28.0869H92.2907V34.3952H74.3418V50.1659H95.7278V56.4742H69.1226V56.6244Z" fill="#E43225"/>
<path d="M122.205 56.6245L113.549 43.2569L104.893 56.6245H98.7825L110.621 38.751L98.146 20.2767H105.02L113.549 34.0948L122.205 20.2767H128.952L117.113 38.751L128.316 56.6245H122.205Z" fill="#E43225"/>
<path d="M136.717 51.2173V76H131.498V38.9011C131.498 29.4387 137.608 19.3754 147.156 19.3754C156.83 19.3754 164.086 26.5849 164.086 38.4505C164.086 50.0157 156.703 57.9762 148.301 57.9762C144.228 57.9762 138.754 55.8735 136.717 51.2173V51.2173ZM158.612 38.4505C158.612 30.3398 154.157 25.5335 146.265 25.9841C142.446 26.1343 136.59 29.4387 137.099 41.0039C137.226 44.7588 140.536 51.8181 147.792 51.8181C154.03 51.8181 158.612 47.6126 158.612 38.4505V38.4505Z" fill="#E43225"/>
<path d="M168.541 56.6244V20.2766H173.76V24.1817C176.306 20.7272 180.253 19.5256 184.454 19.5256V26.1343C183.817 25.9841 177.579 25.0829 173.76 34.6956V56.7746H168.541V56.6244Z" fill="#E43225"/>
<path d="M185.854 38.4505C185.854 27.9367 192.219 19.3754 201.002 19.3754C211.95 19.3754 216.024 27.9367 216.024 38.9011V41.9051H191.582C191.964 48.8142 197.183 52.4189 202.021 52.2687C205.585 52.1185 208.004 50.9169 210.55 47.913L213.987 52.1185C210.804 55.7232 206.731 58.1264 201.766 58.1264C192.473 57.9762 185.854 49.8655 185.854 38.4505V38.4505ZM200.621 25.5335C195.656 25.5335 191.837 30.6402 191.582 36.1976H210.55C210.55 30.7904 207.24 25.5335 200.621 25.5335V25.5335Z" fill="#E43225"/>
<path d="M218.699 51.5177L222.518 47.4624C222.391 47.4624 224.428 49.8655 224.682 50.0157C225.573 50.9169 226.464 51.5177 227.61 51.8181C230.92 52.8695 236.903 52.5691 237.412 47.162C237.667 44.158 235.757 42.5058 233.593 41.4545C230.793 40.2529 227.737 39.8023 224.937 38.3003C221.754 36.6481 219.718 33.7944 219.718 29.5888C219.718 18.6244 232.957 16.822 238.94 21.9288C239.194 22.2292 242.122 25.3833 241.995 25.3833L238.176 28.988C236.266 26.2845 234.484 24.9327 230.411 24.9327C228.374 24.9327 225.573 25.9841 225.064 28.5375C224.3 32.1422 227.737 33.494 230.029 34.245C233.084 35.1461 236.394 35.7469 239.067 37.6995C242.758 40.4031 243.65 46.2608 242.249 50.7667C240.722 55.7232 236.139 57.6758 232.065 57.826C227.228 58.1264 223.027 56.324 219.59 52.2687C219.336 52.2687 218.699 51.5177 218.699 51.5177V51.5177Z" fill="#E43225"/>
<path d="M245.557 51.5177L249.376 47.4624C249.249 47.4624 251.286 49.8655 251.54 50.0157C252.431 50.9169 253.322 51.5177 254.468 51.8181C257.778 52.8695 263.761 52.5691 264.27 47.162C264.524 44.158 262.615 42.5058 260.451 41.4545C257.65 40.2529 254.595 39.8023 251.795 38.3003C248.612 36.6481 246.575 33.7944 246.575 29.5888C246.575 18.6244 259.814 16.822 265.797 21.9288C266.052 22.2292 268.98 25.3833 268.853 25.3833L265.034 28.988C263.124 26.2845 261.342 24.9327 257.269 24.9327C255.232 24.9327 252.431 25.9841 251.922 28.5375C251.158 32.1422 254.595 33.494 256.887 34.245C259.942 35.1461 263.252 35.7469 265.925 37.6995C269.616 40.4031 270.508 46.2608 269.107 50.7667C267.58 55.7232 262.997 57.6758 258.923 57.826C254.086 58.1264 249.885 56.324 246.448 52.2687C246.194 52.2687 245.557 51.5177 245.557 51.5177V51.5177Z" fill="#E43225"/>
<path d="M270.381 20.2766V16.3715H269.235V15.6205H272.291V16.3715H271.145V20.2766H270.381Z" fill="#E43225"/>
<path d="M276.109 20.2766V16.6719L274.963 20.2766H274.709L273.563 16.6719V20.2766H272.926V15.6205H273.945L274.963 18.7746L275.982 15.6205H277V20.2766H276.109Z" fill="#E43225"/>
<path d="M33.7339 56.6244L29.915 44.6086H9.29274L5.47381 56.6244H0L16.5487 6.30823H22.5317L38.9531 56.6244H33.7339ZM19.3493 13.5177L11.5841 38.4505H27.7509L19.3493 13.5177Z" fill="white"/>
<path d="M42.3899 56.6244V6.30823H47.7364V56.6244H42.3899Z" fill="white"/>
<path d="M55.7578 56.6245V21.0276H61.1043V56.6245H55.7578Z" fill="white"/>
<path d="M66.1944 9.46243C66.1944 9.31223 66.1944 9.31224 66.1944 9.16204C66.1944 9.01184 66.1944 9.01185 66.1944 8.86165C62.1208 8.71145 58.8111 4.80632 58.6838 0C58.5565 0 58.4292 0 58.3019 0C58.1746 0 58.0473 0 57.92 0C57.7927 4.80632 54.483 8.71145 50.4094 8.86165C50.4094 9.01185 50.4094 9.01184 50.4094 9.16204C50.4094 9.31224 50.4094 9.31223 50.4094 9.46243C54.483 9.61263 57.7927 13.5178 57.92 18.3241C58.0473 18.3241 58.1746 18.3241 58.3019 18.3241C58.4292 18.3241 58.5565 18.3241 58.6838 18.3241C58.8111 13.5178 62.1208 9.61263 66.1944 9.46243Z" fill="white"/>
</g>
<defs>
<clipPath id="clip0_37_30">
<rect width="277" height="76" fill="white"/>
</clipPath>
</defs>
</svg>
