<svg width="63" height="104" viewBox="0 0 63 104" fill="none" xmlns="http://www.w3.org/2000/svg">
<path d="M62.0859 87.6172V104H1.75781V90.0078L29.4609 54.7812C32.1328 51.0781 34.2188 47.8438 35.7188 45.0781C37.2188 42.2656 38.2969 39.7578 38.9531 37.5547C39.6094 35.3047 39.9375 33.1953 39.9375 31.2266C39.9375 28.1797 39.5859 25.5781 38.8828 23.4219C38.1797 21.2188 37.125 19.5313 35.7188 18.3594C34.3594 17.1406 32.6719 16.5312 30.6562 16.5312C28.2188 16.5312 26.2031 17.2813 24.6094 18.7812C23.0156 20.2812 21.8203 22.3438 21.0234 24.9688C20.2734 27.5469 19.8984 30.4766 19.8984 33.7578H0.140625C0.140625 27.6172 1.38281 21.9922 3.86719 16.8828C6.39844 11.7734 9.9375 7.71875 14.4844 4.71875C19.0781 1.67188 24.5859 0.148438 31.0078 0.148438C37.2891 0.148438 42.5391 1.32031 46.7578 3.66406C51.0234 6.00781 54.2344 9.35938 56.3906 13.7188C58.5938 18.0312 59.6953 23.1875 59.6953 29.1875C59.6953 32.6094 59.25 35.9375 58.3594 39.1719C57.4688 42.3594 56.2031 45.5469 54.5625 48.7344C52.9219 51.875 50.9062 55.0859 48.5156 58.3672C46.125 61.6484 43.4297 65.0469 40.4297 68.5625L27.0703 87.6172H62.0859Z" fill="black"/>
</svg>
