<svg width="33" height="33" viewBox="0 0 33 33" fill="none" xmlns="http://www.w3.org/2000/svg">
<circle cx="16.5" cy="16.5" r="16.5" fill="black"/>
<path d="M26.2607 18.0518V19.3262H21.0312V18.0518H26.2607ZM20.6357 13.833V13.209C20.6357 12.6055 20.7588 12.0664 21.0049 11.5918C21.2568 11.1172 21.6084 10.7451 22.0596 10.4756C22.5107 10.2002 23.0469 10.0625 23.668 10.0625C24.2949 10.0625 24.834 10.2002 25.2852 10.4756C25.7363 10.7451 26.085 11.1172 26.3311 11.5918C26.5771 12.0664 26.7002 12.6055 26.7002 13.209V13.833C26.7002 14.4365 26.5771 14.9756 26.3311 15.4502C26.0908 15.9189 25.7451 16.291 25.2939 16.5664C24.8428 16.8359 24.3066 16.9707 23.6855 16.9707C23.0586 16.9707 22.5166 16.8359 22.0596 16.5664C21.6084 16.291 21.2568 15.9189 21.0049 15.4502C20.7588 14.9756 20.6357 14.4365 20.6357 13.833ZM22.1387 13.209V13.833C22.1387 14.1787 22.1943 14.4951 22.3057 14.7822C22.417 15.0635 22.5869 15.2891 22.8154 15.459C23.0498 15.623 23.3398 15.7051 23.6855 15.7051C24.0254 15.7051 24.3066 15.623 24.5293 15.459C24.7578 15.2891 24.9248 15.0635 25.0303 14.7822C25.1416 14.4951 25.1973 14.1787 25.1973 13.833V13.209C25.1973 12.8691 25.1416 12.5586 25.0303 12.2773C24.9189 11.9902 24.749 11.7617 24.5205 11.5918C24.2979 11.4219 24.0137 11.3369 23.668 11.3369C23.3281 11.3369 23.0439 11.4219 22.8154 11.5918C22.5869 11.7617 22.417 11.9902 22.3057 12.2773C22.1943 12.5586 22.1387 12.8691 22.1387 13.209ZM19.5635 10.2031V23H16.7686L13.0508 14.5098V23H10.502V10.2031H13.2969L17.0146 18.7021V10.2031H19.5635Z" fill="white"/>
</svg>
