<svg width="378" height="40" viewBox="0 0 378 40" fill="none" xmlns="http://www.w3.org/2000/svg">
<path fill-rule="evenodd" clip-rule="evenodd" d="M0 4C0 1.79086 1.79086 0 4 0H374C376.209 0 378 1.79086 378 4V5C376.895 5 376 5.89543 376 7C376 8.10457 376.895 9 378 9V12C376.895 12 376 12.8954 376 14C376 15.1046 376.895 16 378 16V18C376.895 18 376 18.8954 376 20C376 21.1046 376.895 22 378 22V25C376.895 25 376 25.8954 376 27C376 28.1046 376.895 29 378 29V32C376.895 32 376 32.8954 376 34C376 35.1046 376.895 36 378 36C378 38.2091 376.209 40 374 40H4.00001C1.79087 40 0 38.2091 0 36C1.10457 36 2 35.1046 2 34C2 32.8954 1.10457 32 0 32V29C1.10457 29 2 28.1046 2 27C2 25.8954 1.10457 25 0 25V22C1.10457 22 2 21.1046 2 20C2 18.8954 1.10457 18 0 18V16C1.10457 16 2 15.1046 2 14C2 12.8954 1.10457 12 0 12V9C1.10457 9 2 8.10457 2 7C2 5.89543 1.10457 5 0 5V4Z" fill="#651FFF"/>
<path d="M32.4932 22.7549H35.1211C35.0684 23.6162 34.8311 24.3809 34.4092 25.0488C33.9932 25.7168 33.4102 26.2383 32.6602 26.6133C31.916 26.9883 31.0195 27.1758 29.9707 27.1758C29.1504 27.1758 28.415 27.0352 27.7646 26.7539C27.1143 26.4668 26.5576 26.0566 26.0947 25.5234C25.6377 24.9902 25.2891 24.3457 25.0488 23.5898C24.8086 22.834 24.6885 21.9873 24.6885 21.0498V20.1621C24.6885 19.2246 24.8115 18.3779 25.0576 17.6221C25.3096 16.8604 25.667 16.2129 26.1299 15.6797C26.5986 15.1465 27.1582 14.7363 27.8086 14.4492C28.459 14.1621 29.1855 14.0186 29.9883 14.0186C31.0547 14.0186 31.9541 14.2119 32.6865 14.5986C33.4248 14.9854 33.9961 15.5186 34.4004 16.1982C34.8105 16.8779 35.0566 17.6514 35.1387 18.5186H32.502C32.4727 18.0029 32.3701 17.5664 32.1943 17.209C32.0186 16.8457 31.752 16.5732 31.3945 16.3916C31.043 16.2041 30.5742 16.1104 29.9883 16.1104C29.5488 16.1104 29.165 16.1924 28.8369 16.3564C28.5088 16.5205 28.2334 16.7695 28.0107 17.1035C27.7881 17.4375 27.6211 17.8594 27.5098 18.3691C27.4043 18.873 27.3516 19.4648 27.3516 20.1445V21.0498C27.3516 21.7119 27.4014 22.2949 27.501 22.7988C27.6006 23.2969 27.7529 23.7188 27.958 24.0645C28.1689 24.4043 28.4385 24.6621 28.7666 24.8379C29.1006 25.0078 29.502 25.0928 29.9707 25.0928C30.5215 25.0928 30.9756 25.0049 31.333 24.8291C31.6904 24.6533 31.9629 24.3926 32.1504 24.0469C32.3438 23.7012 32.458 23.2705 32.4932 22.7549ZM46.0195 17.4902V27H43.4795V17.4902H46.0195ZM49.0781 17.4902V19.4502H40.4648V17.4902H49.0781ZM54.1318 27.1758C53.3936 27.1758 52.7314 27.0586 52.1455 26.8242C51.5596 26.584 51.0615 26.2529 50.6514 25.8311C50.2471 25.4092 49.9365 24.9199 49.7197 24.3633C49.5029 23.8008 49.3945 23.2031 49.3945 22.5703V22.2188C49.3945 21.498 49.4971 20.8389 49.7021 20.2412C49.9072 19.6436 50.2002 19.125 50.5811 18.6855C50.9678 18.2461 51.4365 17.9092 51.9873 17.6748C52.5381 17.4346 53.1592 17.3145 53.8506 17.3145C54.5244 17.3145 55.1221 17.4258 55.6436 17.6484C56.165 17.8711 56.6016 18.1875 56.9531 18.5977C57.3105 19.0078 57.5801 19.5 57.7617 20.0742C57.9434 20.6426 58.0342 21.2754 58.0342 21.9727V23.0273H50.4756V21.3398H55.5469V21.1465C55.5469 20.7949 55.4824 20.4814 55.3535 20.2061C55.2305 19.9248 55.043 19.7021 54.791 19.5381C54.5391 19.374 54.2168 19.292 53.8242 19.292C53.4902 19.292 53.2031 19.3652 52.9629 19.5117C52.7227 19.6582 52.5264 19.8633 52.374 20.127C52.2275 20.3906 52.1162 20.7012 52.04 21.0586C51.9697 21.4102 51.9346 21.7969 51.9346 22.2188V22.5703C51.9346 22.9512 51.9873 23.3027 52.0928 23.625C52.2041 23.9473 52.3594 24.2256 52.5586 24.46C52.7637 24.6943 53.0098 24.876 53.2969 25.0049C53.5898 25.1338 53.9209 25.1982 54.29 25.1982C54.7471 25.1982 55.1719 25.1104 55.5645 24.9346C55.9629 24.7529 56.3057 24.4805 56.5928 24.1172L57.8232 25.4531C57.624 25.7402 57.3516 26.0156 57.0059 26.2793C56.666 26.543 56.2559 26.7598 55.7754 26.9297C55.2949 27.0938 54.7471 27.1758 54.1318 27.1758ZM61.5146 17.4902L63.0879 20.3818L64.7051 17.4902H67.4033L64.7139 22.1396L67.5264 27H64.8193L63.1055 23.9414L61.3916 27H58.6846L61.4971 22.1396L58.8076 17.4902H61.5146ZM75.1465 21.3311V23.2998H70.3125V21.3311H75.1465ZM71.1562 17.4902V27H68.625V17.4902H71.1562ZM76.8604 17.4902V27H74.3203V17.4902H76.8604ZM81.3516 23.4668L84.542 17.4902H87.0732V27H84.542V21.0146L81.3516 27H78.8203V17.4902H81.3516V23.4668ZM97.04 17.4902V27H94.5V17.4902H97.04ZM95.8447 21.5596V23.5371C95.6514 23.6367 95.4023 23.7305 95.0977 23.8184C94.793 23.9062 94.4707 23.9766 94.1309 24.0293C93.7969 24.0762 93.4863 24.0996 93.1992 24.0996C92.2852 24.0996 91.5 23.9736 90.8438 23.7217C90.1934 23.4697 89.6924 23.0742 89.3408 22.5352C88.9893 21.9961 88.8135 21.3047 88.8135 20.4609V17.4814H91.3447V20.4609C91.3447 20.8887 91.4092 21.2256 91.5381 21.4717C91.667 21.7119 91.8662 21.8818 92.1357 21.9814C92.4111 22.0752 92.7656 22.1221 93.1992 22.1221C93.5039 22.1221 93.7998 22.0986 94.0869 22.0518C94.374 22.0049 94.6611 21.9404 94.9482 21.8584C95.2354 21.7764 95.5342 21.6768 95.8447 21.5596ZM103.368 27.1758C102.63 27.1758 101.968 27.0586 101.382 26.8242C100.796 26.584 100.298 26.2529 99.8877 25.8311C99.4834 25.4092 99.1729 24.9199 98.9561 24.3633C98.7393 23.8008 98.6309 23.2031 98.6309 22.5703V22.2188C98.6309 21.498 98.7334 20.8389 98.9385 20.2412C99.1436 19.6436 99.4365 19.125 99.8174 18.6855C100.204 18.2461 100.673 17.9092 101.224 17.6748C101.774 17.4346 102.396 17.3145 103.087 17.3145C103.761 17.3145 104.358 17.4258 104.88 17.6484C105.401 17.8711 105.838 18.1875 106.189 18.5977C106.547 19.0078 106.816 19.5 106.998 20.0742C107.18 20.6426 107.271 21.2754 107.271 21.9727V23.0273H99.7119V21.3398H104.783V21.1465C104.783 20.7949 104.719 20.4814 104.59 20.2061C104.467 19.9248 104.279 19.7021 104.027 19.5381C103.775 19.374 103.453 19.292 103.061 19.292C102.727 19.292 102.439 19.3652 102.199 19.5117C101.959 19.6582 101.763 19.8633 101.61 20.127C101.464 20.3906 101.353 20.7012 101.276 21.0586C101.206 21.4102 101.171 21.7969 101.171 22.2188V22.5703C101.171 22.9512 101.224 23.3027 101.329 23.625C101.44 23.9473 101.596 24.2256 101.795 24.46C102 24.6943 102.246 24.876 102.533 25.0049C102.826 25.1338 103.157 25.1982 103.526 25.1982C103.983 25.1982 104.408 25.1104 104.801 24.9346C105.199 24.7529 105.542 24.4805 105.829 24.1172L107.06 25.4531C106.86 25.7402 106.588 26.0156 106.242 26.2793C105.902 26.543 105.492 26.7598 105.012 26.9297C104.531 27.0938 103.983 27.1758 103.368 27.1758ZM112.641 25.1982C112.951 25.1982 113.227 25.1396 113.467 25.0225C113.707 24.8994 113.895 24.7295 114.029 24.5127C114.17 24.29 114.243 24.0293 114.249 23.7305H116.631C116.625 24.3984 116.446 24.9932 116.095 25.5146C115.743 26.0303 115.271 26.4375 114.68 26.7363C114.088 27.0293 113.426 27.1758 112.693 27.1758C111.955 27.1758 111.311 27.0527 110.76 26.8066C110.215 26.5605 109.761 26.2207 109.397 25.7871C109.034 25.3477 108.762 24.8379 108.58 24.2578C108.398 23.6719 108.308 23.0449 108.308 22.377V22.1221C108.308 21.4482 108.398 20.8213 108.58 20.2412C108.762 19.6553 109.034 19.1455 109.397 18.7119C109.761 18.2725 110.215 17.9297 110.76 17.6836C111.305 17.4375 111.943 17.3145 112.676 17.3145C113.455 17.3145 114.138 17.4639 114.724 17.7627C115.315 18.0615 115.778 18.4893 116.112 19.0459C116.452 19.5967 116.625 20.25 116.631 21.0059H114.249C114.243 20.6895 114.176 20.4023 114.047 20.1445C113.924 19.8867 113.742 19.6816 113.502 19.5293C113.268 19.3711 112.978 19.292 112.632 19.292C112.263 19.292 111.961 19.3711 111.727 19.5293C111.492 19.6816 111.311 19.8926 111.182 20.1621C111.053 20.4258 110.962 20.7275 110.909 21.0674C110.862 21.4014 110.839 21.7529 110.839 22.1221V22.377C110.839 22.7461 110.862 23.1006 110.909 23.4404C110.956 23.7803 111.044 24.082 111.173 24.3457C111.308 24.6094 111.492 24.8174 111.727 24.9697C111.961 25.1221 112.266 25.1982 112.641 25.1982ZM120.797 17.4902V27H118.266V17.4902H120.797ZM126.976 17.4902L122.88 23.4404H120.349L120.041 21.1025H121.72L123.768 17.4902H126.976ZM123.882 27L121.544 22.9834L123.75 21.7617L127.274 27H123.882ZM130.746 23.4668L133.937 17.4902H136.468V27H133.937V21.0146L130.746 27H128.215V17.4902H130.746V23.4668ZM144.202 24.0908L146.698 17.4902H148.764L145.055 27H143.35L139.658 17.4902H141.724L144.202 24.0908ZM141.117 17.4902V27H138.586V17.4902H141.117ZM147.349 27V17.4902H149.88V27H147.349ZM162.976 17.4902V19.4766H158.37V17.4902H162.976ZM159.1 17.4902V27H156.568V17.4902H159.1ZM164.821 17.4902V27H162.281V17.4902H164.821ZM171.905 24.8555V20.6191C171.905 20.3145 171.855 20.0537 171.756 19.8369C171.656 19.6143 171.501 19.4414 171.29 19.3184C171.085 19.1953 170.818 19.1338 170.49 19.1338C170.209 19.1338 169.966 19.1836 169.761 19.2832C169.556 19.377 169.397 19.5146 169.286 19.6963C169.175 19.8721 169.119 20.0801 169.119 20.3203H166.588C166.588 19.916 166.682 19.5322 166.869 19.1689C167.057 18.8057 167.329 18.4863 167.687 18.2109C168.044 17.9297 168.469 17.71 168.961 17.5518C169.459 17.3936 170.016 17.3145 170.631 17.3145C171.369 17.3145 172.025 17.4375 172.6 17.6836C173.174 17.9297 173.625 18.2988 173.953 18.791C174.287 19.2832 174.454 19.8984 174.454 20.6367V24.7061C174.454 25.2275 174.486 25.6553 174.551 25.9893C174.615 26.3174 174.709 26.6045 174.832 26.8506V27H172.274C172.151 26.7422 172.058 26.4199 171.993 26.0332C171.935 25.6406 171.905 25.248 171.905 24.8555ZM172.239 21.208L172.257 22.6406H170.842C170.508 22.6406 170.218 22.6787 169.972 22.7549C169.726 22.8311 169.523 22.9395 169.365 23.0801C169.207 23.2148 169.09 23.373 169.014 23.5547C168.943 23.7363 168.908 23.9355 168.908 24.1523C168.908 24.3691 168.958 24.5654 169.058 24.7412C169.157 24.9111 169.301 25.0459 169.488 25.1455C169.676 25.2393 169.896 25.2861 170.147 25.2861C170.528 25.2861 170.859 25.21 171.141 25.0576C171.422 24.9053 171.639 24.7178 171.791 24.4951C171.949 24.2725 172.031 24.0615 172.037 23.8623L172.705 24.9346C172.611 25.1748 172.482 25.4238 172.318 25.6816C172.16 25.9395 171.958 26.1826 171.712 26.4111C171.466 26.6338 171.17 26.8184 170.824 26.9648C170.479 27.1055 170.068 27.1758 169.594 27.1758C168.99 27.1758 168.442 27.0557 167.95 26.8154C167.464 26.5693 167.077 26.2324 166.79 25.8047C166.509 25.3711 166.368 24.8789 166.368 24.3281C166.368 23.8301 166.462 23.3877 166.649 23.001C166.837 22.6143 167.112 22.2891 167.476 22.0254C167.845 21.7559 168.305 21.5537 168.855 21.4189C169.406 21.2783 170.045 21.208 170.771 21.208H172.239ZM178.937 19.3184V30.6562H176.405V17.4902H178.752L178.937 19.3184ZM184.957 22.1396V22.3242C184.957 23.0156 184.875 23.6572 184.711 24.249C184.553 24.8408 184.318 25.3564 184.008 25.7959C183.697 26.2295 183.311 26.5693 182.848 26.8154C182.391 27.0557 181.863 27.1758 181.266 27.1758C180.686 27.1758 180.182 27.0586 179.754 26.8242C179.326 26.5898 178.966 26.2617 178.673 25.8398C178.386 25.4121 178.154 24.917 177.979 24.3545C177.803 23.792 177.668 23.1885 177.574 22.5439V22.0605C177.668 21.3691 177.803 20.7363 177.979 20.1621C178.154 19.582 178.386 19.0811 178.673 18.6592C178.966 18.2314 179.323 17.9004 179.745 17.666C180.173 17.4316 180.674 17.3145 181.248 17.3145C181.852 17.3145 182.382 17.4287 182.839 17.6572C183.302 17.8857 183.688 18.2139 183.999 18.6416C184.315 19.0693 184.553 19.5791 184.711 20.1709C184.875 20.7627 184.957 21.4189 184.957 22.1396ZM182.417 22.3242V22.1396C182.417 21.7354 182.382 21.3633 182.312 21.0234C182.247 20.6777 182.142 20.376 181.995 20.1182C181.854 19.8604 181.667 19.6611 181.433 19.5205C181.204 19.374 180.926 19.3008 180.598 19.3008C180.252 19.3008 179.956 19.3564 179.71 19.4678C179.47 19.5791 179.273 19.7402 179.121 19.9512C178.969 20.1621 178.854 20.4141 178.778 20.707C178.702 21 178.655 21.3311 178.638 21.7002V22.9219C178.667 23.3555 178.749 23.7451 178.884 24.0908C179.019 24.4307 179.227 24.7002 179.508 24.8994C179.789 25.0986 180.158 25.1982 180.615 25.1982C180.949 25.1982 181.23 25.125 181.459 24.9785C181.688 24.8262 181.872 24.6182 182.013 24.3545C182.159 24.0908 182.262 23.7861 182.32 23.4404C182.385 23.0947 182.417 22.7227 182.417 22.3242ZM190.898 17.4902V27H188.358V17.4902H190.898ZM193.957 17.4902V19.4502H185.344V17.4902H193.957ZM201.762 21.3311V23.2998H196.928V21.3311H201.762ZM197.771 17.4902V27H195.24V17.4902H197.771ZM203.476 17.4902V27H200.936V17.4902H203.476ZM209.821 27.1758C209.083 27.1758 208.421 27.0586 207.835 26.8242C207.249 26.584 206.751 26.2529 206.341 25.8311C205.937 25.4092 205.626 24.9199 205.409 24.3633C205.192 23.8008 205.084 23.2031 205.084 22.5703V22.2188C205.084 21.498 205.187 20.8389 205.392 20.2412C205.597 19.6436 205.89 19.125 206.271 18.6855C206.657 18.2461 207.126 17.9092 207.677 17.6748C208.228 17.4346 208.849 17.3145 209.54 17.3145C210.214 17.3145 210.812 17.4258 211.333 17.6484C211.854 17.8711 212.291 18.1875 212.643 18.5977C213 19.0078 213.27 19.5 213.451 20.0742C213.633 20.6426 213.724 21.2754 213.724 21.9727V23.0273H206.165V21.3398H211.236V21.1465C211.236 20.7949 211.172 20.4814 211.043 20.2061C210.92 19.9248 210.732 19.7021 210.48 19.5381C210.229 19.374 209.906 19.292 209.514 19.292C209.18 19.292 208.893 19.3652 208.652 19.5117C208.412 19.6582 208.216 19.8633 208.063 20.127C207.917 20.3906 207.806 20.7012 207.729 21.0586C207.659 21.4102 207.624 21.7969 207.624 22.2188V22.5703C207.624 22.9512 207.677 23.3027 207.782 23.625C207.894 23.9473 208.049 24.2256 208.248 24.46C208.453 24.6943 208.699 24.876 208.986 25.0049C209.279 25.1338 209.61 25.1982 209.979 25.1982C210.437 25.1982 210.861 25.1104 211.254 24.9346C211.652 24.7529 211.995 24.4805 212.282 24.1172L213.513 25.4531C213.313 25.7402 213.041 26.0156 212.695 26.2793C212.355 26.543 211.945 26.7598 211.465 26.9297C210.984 27.0938 210.437 27.1758 209.821 27.1758ZM217.696 19.3184V30.6562H215.165V17.4902H217.512L217.696 19.3184ZM223.717 22.1396V22.3242C223.717 23.0156 223.635 23.6572 223.471 24.249C223.312 24.8408 223.078 25.3564 222.768 25.7959C222.457 26.2295 222.07 26.5693 221.607 26.8154C221.15 27.0557 220.623 27.1758 220.025 27.1758C219.445 27.1758 218.941 27.0586 218.514 26.8242C218.086 26.5898 217.726 26.2617 217.433 25.8398C217.146 25.4121 216.914 24.917 216.738 24.3545C216.562 23.792 216.428 23.1885 216.334 22.5439V22.0605C216.428 21.3691 216.562 20.7363 216.738 20.1621C216.914 19.582 217.146 19.0811 217.433 18.6592C217.726 18.2314 218.083 17.9004 218.505 17.666C218.933 17.4316 219.434 17.3145 220.008 17.3145C220.611 17.3145 221.142 17.4287 221.599 17.6572C222.062 17.8857 222.448 18.2139 222.759 18.6416C223.075 19.0693 223.312 19.5791 223.471 20.1709C223.635 20.7627 223.717 21.4189 223.717 22.1396ZM221.177 22.3242V22.1396C221.177 21.7354 221.142 21.3633 221.071 21.0234C221.007 20.6777 220.901 20.376 220.755 20.1182C220.614 19.8604 220.427 19.6611 220.192 19.5205C219.964 19.374 219.686 19.3008 219.357 19.3008C219.012 19.3008 218.716 19.3564 218.47 19.4678C218.229 19.5791 218.033 19.7402 217.881 19.9512C217.729 20.1621 217.614 20.4141 217.538 20.707C217.462 21 217.415 21.3311 217.397 21.7002V22.9219C217.427 23.3555 217.509 23.7451 217.644 24.0908C217.778 24.4307 217.986 24.7002 218.268 24.8994C218.549 25.0986 218.918 25.1982 219.375 25.1982C219.709 25.1982 219.99 25.125 220.219 24.9785C220.447 24.8262 220.632 24.6182 220.772 24.3545C220.919 24.0908 221.021 23.7861 221.08 23.4404C221.145 23.0947 221.177 22.7227 221.177 22.3242ZM224.886 22.3418V22.1572C224.886 21.46 224.985 20.8184 225.185 20.2324C225.384 19.6406 225.674 19.1279 226.055 18.6943C226.436 18.2607 226.904 17.9238 227.461 17.6836C228.018 17.4375 228.656 17.3145 229.377 17.3145C230.098 17.3145 230.739 17.4375 231.302 17.6836C231.864 17.9238 232.336 18.2607 232.717 18.6943C233.104 19.1279 233.396 19.6406 233.596 20.2324C233.795 20.8184 233.895 21.46 233.895 22.1572V22.3418C233.895 23.0332 233.795 23.6748 233.596 24.2666C233.396 24.8525 233.104 25.3652 232.717 25.8047C232.336 26.2383 231.867 26.5752 231.311 26.8154C230.754 27.0557 230.115 27.1758 229.395 27.1758C228.674 27.1758 228.032 27.0557 227.47 26.8154C226.913 26.5752 226.441 26.2383 226.055 25.8047C225.674 25.3652 225.384 24.8525 225.185 24.2666C224.985 23.6748 224.886 23.0332 224.886 22.3418ZM227.417 22.1572V22.3418C227.417 22.7402 227.452 23.1123 227.522 23.458C227.593 23.8037 227.704 24.1084 227.856 24.3721C228.015 24.6299 228.22 24.832 228.472 24.9785C228.724 25.125 229.031 25.1982 229.395 25.1982C229.746 25.1982 230.048 25.125 230.3 24.9785C230.552 24.832 230.754 24.6299 230.906 24.3721C231.059 24.1084 231.17 23.8037 231.24 23.458C231.316 23.1123 231.354 22.7402 231.354 22.3418V22.1572C231.354 21.7705 231.316 21.4072 231.24 21.0674C231.17 20.7217 231.056 20.417 230.897 20.1533C230.745 19.8838 230.543 19.6729 230.291 19.5205C230.039 19.3682 229.734 19.292 229.377 19.292C229.02 19.292 228.715 19.3682 228.463 19.5205C228.217 19.6729 228.015 19.8838 227.856 20.1533C227.704 20.417 227.593 20.7217 227.522 21.0674C227.452 21.4072 227.417 21.7705 227.417 22.1572ZM241.233 24.0908L243.729 17.4902H245.795L242.086 27H240.381L236.689 17.4902H238.755L241.233 24.0908ZM238.148 17.4902V27H235.617V17.4902H238.148ZM244.38 27V17.4902H246.911V27H244.38ZM261.185 22.7549H263.812C263.76 23.6162 263.522 24.3809 263.101 25.0488C262.685 25.7168 262.102 26.2383 261.352 26.6133C260.607 26.9883 259.711 27.1758 258.662 27.1758C257.842 27.1758 257.106 27.0352 256.456 26.7539C255.806 26.4668 255.249 26.0566 254.786 25.5234C254.329 24.9902 253.98 24.3457 253.74 23.5898C253.5 22.834 253.38 21.9873 253.38 21.0498V20.1621C253.38 19.2246 253.503 18.3779 253.749 17.6221C254.001 16.8604 254.358 16.2129 254.821 15.6797C255.29 15.1465 255.85 14.7363 256.5 14.4492C257.15 14.1621 257.877 14.0186 258.68 14.0186C259.746 14.0186 260.646 14.2119 261.378 14.5986C262.116 14.9854 262.688 15.5186 263.092 16.1982C263.502 16.8779 263.748 17.6514 263.83 18.5186H261.193C261.164 18.0029 261.062 17.5664 260.886 17.209C260.71 16.8457 260.443 16.5732 260.086 16.3916C259.734 16.2041 259.266 16.1104 258.68 16.1104C258.24 16.1104 257.856 16.1924 257.528 16.3564C257.2 16.5205 256.925 16.7695 256.702 17.1035C256.479 17.4375 256.312 17.8594 256.201 18.3691C256.096 18.873 256.043 19.4648 256.043 20.1445V21.0498C256.043 21.7119 256.093 22.2949 256.192 22.7988C256.292 23.2969 256.444 23.7188 256.649 24.0645C256.86 24.4043 257.13 24.6621 257.458 24.8379C257.792 25.0078 258.193 25.0928 258.662 25.0928C259.213 25.0928 259.667 25.0049 260.024 24.8291C260.382 24.6533 260.654 24.3926 260.842 24.0469C261.035 23.7012 261.149 23.2705 261.185 22.7549ZM264.981 22.3418V22.1572C264.981 21.46 265.081 20.8184 265.28 20.2324C265.479 19.6406 265.77 19.1279 266.15 18.6943C266.531 18.2607 267 17.9238 267.557 17.6836C268.113 17.4375 268.752 17.3145 269.473 17.3145C270.193 17.3145 270.835 17.4375 271.397 17.6836C271.96 17.9238 272.432 18.2607 272.812 18.6943C273.199 19.1279 273.492 19.6406 273.691 20.2324C273.891 20.8184 273.99 21.46 273.99 22.1572V22.3418C273.99 23.0332 273.891 23.6748 273.691 24.2666C273.492 24.8525 273.199 25.3652 272.812 25.8047C272.432 26.2383 271.963 26.5752 271.406 26.8154C270.85 27.0557 270.211 27.1758 269.49 27.1758C268.77 27.1758 268.128 27.0557 267.565 26.8154C267.009 26.5752 266.537 26.2383 266.15 25.8047C265.77 25.3652 265.479 24.8525 265.28 24.2666C265.081 23.6748 264.981 23.0332 264.981 22.3418ZM267.513 22.1572V22.3418C267.513 22.7402 267.548 23.1123 267.618 23.458C267.688 23.8037 267.8 24.1084 267.952 24.3721C268.11 24.6299 268.315 24.832 268.567 24.9785C268.819 25.125 269.127 25.1982 269.49 25.1982C269.842 25.1982 270.144 25.125 270.396 24.9785C270.647 24.832 270.85 24.6299 271.002 24.3721C271.154 24.1084 271.266 23.8037 271.336 23.458C271.412 23.1123 271.45 22.7402 271.45 22.3418V22.1572C271.45 21.7705 271.412 21.4072 271.336 21.0674C271.266 20.7217 271.151 20.417 270.993 20.1533C270.841 19.8838 270.639 19.6729 270.387 19.5205C270.135 19.3682 269.83 19.292 269.473 19.292C269.115 19.292 268.811 19.3682 268.559 19.5205C268.312 19.6729 268.11 19.8838 267.952 20.1533C267.8 20.417 267.688 20.7217 267.618 21.0674C267.548 21.4072 267.513 21.7705 267.513 22.1572ZM278.024 19.5205V27H275.493V17.4902H277.866L278.024 19.5205ZM277.655 21.9111H276.97C276.97 21.208 277.061 20.5752 277.242 20.0127C277.424 19.4443 277.679 18.9609 278.007 18.5625C278.335 18.1582 278.725 17.8506 279.176 17.6396C279.633 17.4229 280.143 17.3145 280.705 17.3145C281.15 17.3145 281.558 17.3789 281.927 17.5078C282.296 17.6367 282.612 17.8418 282.876 18.123C283.146 18.4043 283.351 18.7764 283.491 19.2393C283.638 19.7021 283.711 20.2676 283.711 20.9355V27H281.162V20.9268C281.162 20.5049 281.104 20.1768 280.986 19.9424C280.869 19.708 280.696 19.5439 280.468 19.4502C280.245 19.3506 279.97 19.3008 279.642 19.3008C279.302 19.3008 279.006 19.3682 278.754 19.5029C278.508 19.6377 278.303 19.8252 278.139 20.0654C277.98 20.2998 277.86 20.5752 277.778 20.8916C277.696 21.208 277.655 21.5479 277.655 21.9111ZM290.294 17.4902V19.2832H284.757V17.4902H290.294ZM286.128 15.1436H288.659V24.1348C288.659 24.4102 288.694 24.6211 288.765 24.7676C288.841 24.9141 288.952 25.0166 289.099 25.0752C289.245 25.1279 289.43 25.1543 289.652 25.1543C289.811 25.1543 289.951 25.1484 290.074 25.1367C290.203 25.1191 290.312 25.1016 290.399 25.084L290.408 26.9473C290.191 27.0176 289.957 27.0732 289.705 27.1143C289.453 27.1553 289.175 27.1758 288.87 27.1758C288.313 27.1758 287.827 27.085 287.411 26.9033C287.001 26.7158 286.685 26.417 286.462 26.0068C286.239 25.5967 286.128 25.0576 286.128 24.3896V15.1436ZM296.112 27.1758C295.374 27.1758 294.712 27.0586 294.126 26.8242C293.54 26.584 293.042 26.2529 292.632 25.8311C292.228 25.4092 291.917 24.9199 291.7 24.3633C291.483 23.8008 291.375 23.2031 291.375 22.5703V22.2188C291.375 21.498 291.478 20.8389 291.683 20.2412C291.888 19.6436 292.181 19.125 292.562 18.6855C292.948 18.2461 293.417 17.9092 293.968 17.6748C294.519 17.4346 295.14 17.3145 295.831 17.3145C296.505 17.3145 297.103 17.4258 297.624 17.6484C298.146 17.8711 298.582 18.1875 298.934 18.5977C299.291 19.0078 299.561 19.5 299.742 20.0742C299.924 20.6426 300.015 21.2754 300.015 21.9727V23.0273H292.456V21.3398H297.527V21.1465C297.527 20.7949 297.463 20.4814 297.334 20.2061C297.211 19.9248 297.023 19.7021 296.771 19.5381C296.52 19.374 296.197 19.292 295.805 19.292C295.471 19.292 295.184 19.3652 294.943 19.5117C294.703 19.6582 294.507 19.8633 294.354 20.127C294.208 20.3906 294.097 20.7012 294.021 21.0586C293.95 21.4102 293.915 21.7969 293.915 22.2188V22.5703C293.915 22.9512 293.968 23.3027 294.073 23.625C294.185 23.9473 294.34 24.2256 294.539 24.46C294.744 24.6943 294.99 24.876 295.277 25.0049C295.57 25.1338 295.901 25.1982 296.271 25.1982C296.728 25.1982 297.152 25.1104 297.545 24.9346C297.943 24.7529 298.286 24.4805 298.573 24.1172L299.804 25.4531C299.604 25.7402 299.332 26.0156 298.986 26.2793C298.646 26.543 298.236 26.7598 297.756 26.9297C297.275 27.0938 296.728 27.1758 296.112 27.1758ZM303.935 19.5205V27H301.403V17.4902H303.776L303.935 19.5205ZM303.565 21.9111H302.88C302.88 21.208 302.971 20.5752 303.152 20.0127C303.334 19.4443 303.589 18.9609 303.917 18.5625C304.245 18.1582 304.635 17.8506 305.086 17.6396C305.543 17.4229 306.053 17.3145 306.615 17.3145C307.061 17.3145 307.468 17.3789 307.837 17.5078C308.206 17.6367 308.522 17.8418 308.786 18.123C309.056 18.4043 309.261 18.7764 309.401 19.2393C309.548 19.7021 309.621 20.2676 309.621 20.9355V27H307.072V20.9268C307.072 20.5049 307.014 20.1768 306.896 19.9424C306.779 19.708 306.606 19.5439 306.378 19.4502C306.155 19.3506 305.88 19.3008 305.552 19.3008C305.212 19.3008 304.916 19.3682 304.664 19.5029C304.418 19.6377 304.213 19.8252 304.049 20.0654C303.891 20.2998 303.771 20.5752 303.688 20.8916C303.606 21.208 303.565 21.5479 303.565 21.9111ZM316.204 17.4902V19.2832H310.667V17.4902H316.204ZM312.038 15.1436H314.569V24.1348C314.569 24.4102 314.604 24.6211 314.675 24.7676C314.751 24.9141 314.862 25.0166 315.009 25.0752C315.155 25.1279 315.34 25.1543 315.562 25.1543C315.721 25.1543 315.861 25.1484 315.984 25.1367C316.113 25.1191 316.222 25.1016 316.31 25.084L316.318 26.9473C316.102 27.0176 315.867 27.0732 315.615 27.1143C315.363 27.1553 315.085 27.1758 314.78 27.1758C314.224 27.1758 313.737 27.085 313.321 26.9033C312.911 26.7158 312.595 26.417 312.372 26.0068C312.149 25.5967 312.038 25.0576 312.038 24.3896V15.1436ZM330.82 19.415V21.4717H324.141V19.415H330.82ZM324.923 14.2031V27H322.286V14.2031H324.923ZM332.701 14.2031V27H330.073V14.2031H332.701ZM340.462 24.7236V17.4902H342.993V27H340.611L340.462 24.7236ZM340.743 22.7725L341.49 22.7549C341.49 23.3877 341.417 23.9766 341.271 24.5215C341.124 25.0605 340.904 25.5293 340.611 25.9277C340.318 26.3203 339.949 26.6279 339.504 26.8506C339.059 27.0674 338.534 27.1758 337.931 27.1758C337.468 27.1758 337.04 27.1113 336.647 26.9824C336.261 26.8477 335.927 26.6396 335.646 26.3584C335.37 26.0713 335.153 25.7051 334.995 25.2598C334.843 24.8086 334.767 24.2666 334.767 23.6338V17.4902H337.298V23.6514C337.298 23.9326 337.33 24.1699 337.395 24.3633C337.465 24.5566 337.562 24.7148 337.685 24.8379C337.808 24.9609 337.951 25.0488 338.115 25.1016C338.285 25.1543 338.473 25.1807 338.678 25.1807C339.199 25.1807 339.609 25.0752 339.908 24.8643C340.213 24.6533 340.427 24.3662 340.55 24.0029C340.679 23.6338 340.743 23.2236 340.743 22.7725ZM344.927 13.5H347.458V24.8203L347.203 27H344.927V13.5ZM353.479 22.1484V22.333C353.479 23.042 353.402 23.6924 353.25 24.2842C353.104 24.876 352.875 25.3887 352.564 25.8223C352.254 26.25 351.867 26.584 351.404 26.8242C350.947 27.0586 350.408 27.1758 349.787 27.1758C349.207 27.1758 348.703 27.0586 348.275 26.8242C347.854 26.5898 347.499 26.2588 347.212 25.8311C346.925 25.4033 346.693 24.9023 346.518 24.3281C346.342 23.7539 346.21 23.127 346.122 22.4473V22.043C346.21 21.3633 346.342 20.7363 346.518 20.1621C346.693 19.5879 346.925 19.0869 347.212 18.6592C347.499 18.2314 347.854 17.9004 348.275 17.666C348.697 17.4316 349.195 17.3145 349.77 17.3145C350.396 17.3145 350.941 17.4346 351.404 17.6748C351.873 17.9092 352.26 18.2432 352.564 18.6768C352.875 19.1045 353.104 19.6143 353.25 20.2061C353.402 20.792 353.479 21.4395 353.479 22.1484ZM350.947 22.333V22.1484C350.947 21.7617 350.918 21.3984 350.859 21.0586C350.807 20.7129 350.713 20.4111 350.578 20.1533C350.443 19.8896 350.259 19.6816 350.024 19.5293C349.796 19.377 349.5 19.3008 349.137 19.3008C348.791 19.3008 348.498 19.3594 348.258 19.4766C348.018 19.5938 347.818 19.7578 347.66 19.9688C347.508 20.1797 347.394 20.4316 347.317 20.7246C347.241 21.0117 347.194 21.3281 347.177 21.6738V22.8252C347.194 23.2881 347.271 23.6982 347.405 24.0557C347.546 24.4072 347.757 24.6855 348.038 24.8906C348.325 25.0898 348.697 25.1895 349.154 25.1895C349.512 25.1895 349.808 25.1191 350.042 24.9785C350.276 24.8379 350.458 24.6387 350.587 24.3809C350.722 24.123 350.815 23.8213 350.868 23.4756C350.921 23.124 350.947 22.7432 350.947 22.333Z" fill="white"/>
</svg>
