<svg width="202" height="40" viewBox="0 0 202 40" fill="none" xmlns="http://www.w3.org/2000/svg">
<path fill-rule="evenodd" clip-rule="evenodd" d="M0 4C0 1.79086 1.79086 0 4 0H198C200.209 0 202 1.79086 202 4V5C200.895 5 200 5.89543 200 7C200 8.10457 200.895 9 202 9V12C200.895 12 200 12.8954 200 14C200 15.1046 200.895 16 202 16V18C200.895 18 200 18.8954 200 20C200 21.1046 200.895 22 202 22V25C200.895 25 200 25.8954 200 27C200 28.1046 200.895 29 202 29V32C200.895 32 200 32.8954 200 34C200 35.1046 200.895 36 202 36C202 38.2091 200.209 40 198 40H4C1.79086 40 0 38.2091 0 36C1.10457 36 2 35.1046 2 34C2 32.8954 1.10457 32 0 32V29C1.10457 29 2 28.1046 2 27C2 25.8954 1.10457 25 0 25V22C1.10457 22 2 21.1046 2 20C2 18.8954 1.10457 18 0 18V16C1.10457 16 2 15.1046 2 14C2 12.8954 1.10457 12 0 12V9C1.10457 9 2 8.10457 2 7C2 5.89543 1.10457 5 0 5V4Z" fill="#651FFF"/>
<path d="M40.7598 22.7373C40.6602 24.1143 40.1504 25.1982 39.2305 25.9893C38.3164 26.7803 37.1094 27.1758 35.6094 27.1758C33.9688 27.1758 32.6768 26.625 31.7334 25.5234C30.7959 24.416 30.3271 22.8984 30.3271 20.9707V20.1885C30.3271 18.958 30.5439 17.874 30.9775 16.9365C31.4111 15.999 32.0293 15.2812 32.832 14.7832C33.6406 14.2793 34.5781 14.0273 35.6445 14.0273C37.1211 14.0273 38.3105 14.4229 39.2129 15.2139C40.1152 16.0049 40.6367 17.1152 40.7773 18.5449H38.1406C38.0762 17.7188 37.8447 17.1211 37.4463 16.752C37.0537 16.377 36.4531 16.1895 35.6445 16.1895C34.7656 16.1895 34.1064 16.5059 33.667 17.1387C33.2334 17.7656 33.0107 18.7412 32.999 20.0654V21.0322C32.999 22.415 33.207 23.4258 33.623 24.0645C34.0449 24.7031 34.707 25.0225 35.6094 25.0225C36.4238 25.0225 37.0303 24.8379 37.4287 24.4688C37.833 24.0938 38.0645 23.5166 38.123 22.7373H40.7598ZM47.835 27C47.7178 26.7715 47.6328 26.4873 47.5801 26.1475C46.9648 26.833 46.165 27.1758 45.1807 27.1758C44.249 27.1758 43.4756 26.9062 42.8604 26.3672C42.251 25.8281 41.9463 25.1484 41.9463 24.3281C41.9463 23.3203 42.3184 22.5469 43.0625 22.0078C43.8125 21.4688 44.8936 21.1963 46.3057 21.1904H47.4746V20.6455C47.4746 20.2061 47.3604 19.8545 47.1318 19.5908C46.9092 19.3271 46.5547 19.1953 46.0684 19.1953C45.6406 19.1953 45.3037 19.2979 45.0576 19.5029C44.8174 19.708 44.6973 19.9893 44.6973 20.3467H42.1572C42.1572 19.7959 42.3271 19.2861 42.667 18.8174C43.0068 18.3486 43.4873 17.9824 44.1084 17.7188C44.7295 17.4492 45.4268 17.3145 46.2002 17.3145C47.3721 17.3145 48.3008 17.6104 48.9863 18.2021C49.6777 18.7881 50.0234 19.6143 50.0234 20.6807V24.8027C50.0293 25.7051 50.1553 26.3877 50.4014 26.8506V27H47.835ZM45.7344 25.2334C46.1094 25.2334 46.4551 25.1514 46.7715 24.9873C47.0879 24.8174 47.3223 24.5918 47.4746 24.3105V22.6758H46.5254C45.2539 22.6758 44.5771 23.1152 44.4951 23.9941L44.4863 24.1436C44.4863 24.46 44.5977 24.7207 44.8203 24.9258C45.043 25.1309 45.3477 25.2334 45.7344 25.2334ZM57.7666 24.0029L60.2539 17.4902H63.4355V27H60.8955V21.1641L58.6191 27H56.9141L54.6816 21.2607V27H52.1416V17.4902H55.2969L57.7666 24.0029ZM65.2549 22.1572C65.2549 21.2139 65.4365 20.373 65.7998 19.6348C66.1631 18.8965 66.6846 18.3252 67.3643 17.9209C68.0498 17.5166 68.8438 17.3145 69.7461 17.3145C71.0293 17.3145 72.0752 17.707 72.8838 18.4922C73.6982 19.2773 74.1523 20.3438 74.2461 21.6914L74.2637 22.3418C74.2637 23.8008 73.8564 24.9727 73.042 25.8574C72.2275 26.7363 71.1348 27.1758 69.7637 27.1758C68.3926 27.1758 67.2969 26.7363 66.4766 25.8574C65.6621 24.9785 65.2549 23.7832 65.2549 22.2715V22.1572ZM67.7949 22.3418C67.7949 23.2441 67.9648 23.9355 68.3047 24.416C68.6445 24.8906 69.1309 25.1279 69.7637 25.1279C70.3789 25.1279 70.8594 24.8936 71.2051 24.4248C71.5508 23.9502 71.7236 23.1943 71.7236 22.1572C71.7236 21.2725 71.5508 20.5869 71.2051 20.1006C70.8594 19.6143 70.373 19.3711 69.7461 19.3711C69.125 19.3711 68.6445 19.6143 68.3047 20.1006C67.9648 20.5811 67.7949 21.3281 67.7949 22.3418ZM79.7832 25.1279C80.252 25.1279 80.6328 24.999 80.9258 24.7412C81.2188 24.4834 81.3711 24.1406 81.3828 23.7129H83.7646C83.7588 24.3574 83.583 24.9492 83.2373 25.4883C82.8916 26.0215 82.417 26.4375 81.8135 26.7363C81.2158 27.0293 80.5537 27.1758 79.8271 27.1758C78.4678 27.1758 77.3955 26.7451 76.6104 25.8838C75.8252 25.0166 75.4326 23.8213 75.4326 22.2979V22.1309C75.4326 20.666 75.8223 19.4971 76.6016 18.624C77.3809 17.751 78.4502 17.3145 79.8096 17.3145C80.999 17.3145 81.9512 17.6543 82.666 18.334C83.3867 19.0078 83.7529 19.9072 83.7646 21.0322H81.3828C81.3711 20.54 81.2188 20.1416 80.9258 19.8369C80.6328 19.5264 80.2461 19.3711 79.7656 19.3711C79.1738 19.3711 78.7256 19.5879 78.4209 20.0215C78.1221 20.4492 77.9727 21.1465 77.9727 22.1133V22.377C77.9727 23.3555 78.1221 24.0586 78.4209 24.4863C78.7197 24.9141 79.1738 25.1279 79.7832 25.1279ZM93.1074 19.5293H90.0576V27H87.5088V19.5293H84.5117V17.4902H93.1074V19.5293ZM93.7314 22.1572C93.7314 21.2139 93.9131 20.373 94.2764 19.6348C94.6396 18.8965 95.1611 18.3252 95.8408 17.9209C96.5264 17.5166 97.3203 17.3145 98.2227 17.3145C99.5059 17.3145 100.552 17.707 101.36 18.4922C102.175 19.2773 102.629 20.3438 102.723 21.6914L102.74 22.3418C102.74 23.8008 102.333 24.9727 101.519 25.8574C100.704 26.7363 99.6113 27.1758 98.2402 27.1758C96.8691 27.1758 95.7734 26.7363 94.9531 25.8574C94.1387 24.9785 93.7314 23.7832 93.7314 22.2715V22.1572ZM96.2715 22.3418C96.2715 23.2441 96.4414 23.9355 96.7812 24.416C97.1211 24.8906 97.6074 25.1279 98.2402 25.1279C98.8555 25.1279 99.3359 24.8936 99.6816 24.4248C100.027 23.9502 100.2 23.1943 100.2 22.1572C100.2 21.2725 100.027 20.5869 99.6816 20.1006C99.3359 19.6143 98.8496 19.3711 98.2227 19.3711C97.6016 19.3711 97.1211 19.6143 96.7812 20.1006C96.4414 20.5811 96.2715 21.3281 96.2715 22.3418ZM112.232 17.4902V27H109.701V23.7129H108.093L106.265 27H103.689L105.764 23.2822C105.195 23.0186 104.756 22.6611 104.445 22.21C104.141 21.7588 103.988 21.2461 103.988 20.6719C103.988 19.752 104.343 18.999 105.052 18.4131C105.767 17.8213 106.722 17.5137 107.917 17.4902H112.232ZM107.961 21.9375H109.701V19.5293H108.049C107.598 19.5293 107.231 19.6494 106.95 19.8896C106.669 20.124 106.528 20.4111 106.528 20.751C106.528 21.0908 106.663 21.3721 106.933 21.5947C107.202 21.8174 107.545 21.9316 107.961 21.9375ZM122.27 19.5293H119.22V27H116.671V19.5293H113.674V17.4902H122.27V19.5293ZM127.367 27.1758C125.973 27.1758 124.836 26.748 123.957 25.8926C123.084 25.0371 122.647 23.8975 122.647 22.4736V22.2275C122.647 21.2725 122.832 20.4199 123.201 19.6699C123.57 18.9141 124.092 18.334 124.766 17.9297C125.445 17.5195 126.219 17.3145 127.086 17.3145C128.387 17.3145 129.409 17.7246 130.153 18.5449C130.903 19.3652 131.278 20.5283 131.278 22.0342V23.0713H125.223C125.305 23.6924 125.551 24.1904 125.961 24.5654C126.377 24.9404 126.901 25.1279 127.534 25.1279C128.513 25.1279 129.277 24.7734 129.828 24.0645L131.076 25.4619C130.695 26.001 130.18 26.4229 129.529 26.7275C128.879 27.0264 128.158 27.1758 127.367 27.1758ZM127.077 19.3711C126.573 19.3711 126.163 19.541 125.847 19.8809C125.536 20.2207 125.337 20.707 125.249 21.3398H128.782V21.1377C128.771 20.5752 128.618 20.1416 128.325 19.8369C128.032 19.5264 127.616 19.3711 127.077 19.3711ZM140.999 17.4902V27H138.459V19.5469H136.218L136.06 22.4824C135.96 24.0469 135.652 25.1865 135.137 25.9014C134.621 26.6162 133.854 26.9824 132.834 27H131.973L131.946 24.9346L132.263 24.9082C132.72 24.873 133.054 24.6035 133.265 24.0996C133.476 23.5957 133.607 22.7373 133.66 21.5244L133.836 17.4902H140.999ZM145.675 20.2764H147.494C148.314 20.2764 149.035 20.4141 149.656 20.6895C150.277 20.9648 150.752 21.3604 151.08 21.876C151.414 22.3857 151.581 22.9805 151.581 23.6602C151.581 24.6621 151.209 25.4707 150.465 26.0859C149.727 26.6953 148.719 27 147.441 27H143.126V17.4902H145.675V20.2764ZM145.675 22.3154V24.9697H147.477C147.98 24.9697 148.367 24.8525 148.637 24.6182C148.906 24.3838 149.041 24.0645 149.041 23.6602C149.041 23.25 148.909 22.9248 148.646 22.6846C148.382 22.4385 147.992 22.3154 147.477 22.3154H145.675ZM161.258 27H158.709V23.3438H155.554V27H153.014V17.4902H155.554V21.3047H158.709V17.4902H161.258V27ZM162.831 22.1572C162.831 21.2139 163.013 20.373 163.376 19.6348C163.739 18.8965 164.261 18.3252 164.94 17.9209C165.626 17.5166 166.42 17.3145 167.322 17.3145C168.605 17.3145 169.651 17.707 170.46 18.4922C171.274 19.2773 171.729 20.3438 171.822 21.6914L171.84 22.3418C171.84 23.8008 171.433 24.9727 170.618 25.8574C169.804 26.7363 168.711 27.1758 167.34 27.1758C165.969 27.1758 164.873 26.7363 164.053 25.8574C163.238 24.9785 162.831 23.7832 162.831 22.2715V22.1572ZM165.371 22.3418C165.371 23.2441 165.541 23.9355 165.881 24.416C166.221 24.8906 166.707 25.1279 167.34 25.1279C167.955 25.1279 168.436 24.8936 168.781 24.4248C169.127 23.9502 169.3 23.1943 169.3 22.1572C169.3 21.2725 169.127 20.5869 168.781 20.1006C168.436 19.6143 167.949 19.3711 167.322 19.3711C166.701 19.3711 166.221 19.6143 165.881 20.1006C165.541 20.5811 165.371 21.3281 165.371 22.3418Z" fill="white"/>
</svg>
