<svg width="97" height="40" viewBox="0 0 97 40" fill="none" xmlns="http://www.w3.org/2000/svg">
<path fill-rule="evenodd" clip-rule="evenodd" d="M0 4C0 1.79086 1.79086 0 4 0H93C95.2091 0 97 1.79086 97 4V5C95.8954 5 95 5.89543 95 7C95 8.10457 95.8954 9 97 9V12C95.8954 12 95 12.8954 95 14C95 15.1046 95.8954 16 97 16V18C95.8954 18 95 18.8954 95 20C95 21.1046 95.8954 22 97 22V25C95.8954 25 95 25.8954 95 27C95 28.1046 95.8954 29 97 29V32C95.8954 32 95 32.8954 95 34C95 35.1046 95.8954 36 97 36C97 38.2091 95.2091 40 93 40H4C1.79086 40 0 38.2091 0 36C1.10457 36 2 35.1046 2 34C2 32.8954 1.10457 32 0 32V29C1.10457 29 2 28.1046 2 27C2 25.8954 1.10457 25 0 25V22C1.10457 22 2 21.1046 2 20C2 18.8954 1.10457 18 0 18V16C1.10457 16 2 15.1046 2 14C2 12.8954 1.10457 12 0 12V9C1.10457 9 2 8.10457 2 7C2 5.89543 1.10457 5 0 5V4Z" fill="#651FFF"/>
<path d="M33.4443 21.7705H31.9238V27H29.2871V14.2031H31.9238V19.3271H33.1279L36.2568 14.2031H39.4736L35.5273 20.2588L39.8867 27H36.7402L33.4443 21.7705ZM44.8877 27.1758C43.4932 27.1758 42.3564 26.748 41.4775 25.8926C40.6045 25.0371 40.168 23.8975 40.168 22.4736V22.2275C40.168 21.2725 40.3525 20.4199 40.7217 19.6699C41.0908 18.9141 41.6123 18.334 42.2861 17.9297C42.9658 17.5195 43.7393 17.3145 44.6064 17.3145C45.9072 17.3145 46.9297 17.7246 47.6738 18.5449C48.4238 19.3652 48.7988 20.5283 48.7988 22.0342V23.0713H42.7432C42.8252 23.6924 43.0713 24.1904 43.4814 24.5654C43.8975 24.9404 44.4219 25.1279 45.0547 25.1279C46.0332 25.1279 46.7979 24.7734 47.3486 24.0645L48.5967 25.4619C48.2158 26.001 47.7002 26.4229 47.0498 26.7275C46.3994 27.0264 45.6787 27.1758 44.8877 27.1758ZM44.5977 19.3711C44.0938 19.3711 43.6836 19.541 43.3672 19.8809C43.0566 20.2207 42.8574 20.707 42.7695 21.3398H46.3027V21.1377C46.291 20.5752 46.1387 20.1416 45.8457 19.8369C45.5527 19.5264 45.1367 19.3711 44.5977 19.3711ZM55.9795 17.4902H58.5195V27H55.9795V21.1289L52.7979 27H50.249V17.4902H52.7979V23.3525L55.9795 17.4902ZM57.4736 13.6318C57.4736 14.4111 57.1924 15.041 56.6299 15.5215C56.0732 16.002 55.3408 16.2422 54.4326 16.2422C53.5244 16.2422 52.7891 16.0049 52.2266 15.5303C51.6699 15.0557 51.3916 14.4229 51.3916 13.6318H53.1934C53.1934 14.001 53.3018 14.2881 53.5186 14.4932C53.7412 14.6924 54.0459 14.792 54.4326 14.792C54.8135 14.792 55.1123 14.6924 55.3291 14.4932C55.5459 14.2881 55.6543 14.001 55.6543 13.6318H57.4736ZM64.417 25.1279C64.8857 25.1279 65.2666 24.999 65.5596 24.7412C65.8525 24.4834 66.0049 24.1406 66.0166 23.7129H68.3984C68.3926 24.3574 68.2168 24.9492 67.8711 25.4883C67.5254 26.0215 67.0508 26.4375 66.4473 26.7363C65.8496 27.0293 65.1875 27.1758 64.4609 27.1758C63.1016 27.1758 62.0293 26.7451 61.2441 25.8838C60.459 25.0166 60.0664 23.8213 60.0664 22.2979V22.1309C60.0664 20.666 60.4561 19.4971 61.2354 18.624C62.0146 17.751 63.084 17.3145 64.4434 17.3145C65.6328 17.3145 66.585 17.6543 67.2998 18.334C68.0205 19.0078 68.3867 19.9072 68.3984 21.0322H66.0166C66.0049 20.54 65.8525 20.1416 65.5596 19.8369C65.2666 19.5264 64.8799 19.3711 64.3994 19.3711C63.8076 19.3711 63.3594 19.5879 63.0547 20.0215C62.7559 20.4492 62.6064 21.1465 62.6064 22.1133V22.377C62.6064 23.3555 62.7559 24.0586 63.0547 24.4863C63.3535 24.9141 63.8076 25.1279 64.417 25.1279Z" fill="white"/>
</svg>
