<svg width="251" height="66" viewBox="0 0 251 66" fill="none" xmlns="http://www.w3.org/2000/svg">
<path fill-rule="evenodd" clip-rule="evenodd" d="M0 4C0 1.79086 1.79086 0 4 0H247C249.209 0 251 1.79086 251 4V5C249.895 5 249 5.89543 249 7C249 8.10457 249.895 9 251 9V12C249.895 12 249 12.8954 249 14C249 15.1046 249.895 16 251 16V18C249.895 18 249 18.8954 249 20C249 21.1046 249.895 22 251 22V25C249.895 25 249 25.8954 249 27C249 28.1046 249.895 29 251 29V32C249.895 32 249 32.8954 249 34C249 35.1046 249.895 36 251 36V62C251 64.2091 249.209 66 247 66H4C1.79086 66 0 64.2091 0 62V36C1.10457 36 2 35.1046 2 34C2 32.8954 1.10457 32 0 32V29C1.10457 29 2 28.1046 2 27C2 25.8954 1.10457 25 0 25V22C1.10457 22 2 21.1046 2 20C2 18.8954 1.10457 18 0 18V16C1.10457 16 2 15.1046 2 14C2 12.8954 1.10457 12 0 12V9C1.10457 9 2 8.10457 2 7C2 5.89543 1.10457 5 0 5V4Z" fill="#651FFF"/>
<path d="M21.9561 29.2549H24.584C24.5312 30.1162 24.2939 30.8809 23.8721 31.5488C23.4561 32.2168 22.873 32.7383 22.123 33.1133C21.3789 33.4883 20.4824 33.6758 19.4336 33.6758C18.6133 33.6758 17.8779 33.5352 17.2275 33.2539C16.5771 32.9668 16.0205 32.5566 15.5576 32.0234C15.1006 31.4902 14.752 30.8457 14.5117 30.0898C14.2715 29.334 14.1514 28.4873 14.1514 27.5498V26.6621C14.1514 25.7246 14.2744 24.8779 14.5205 24.1221C14.7725 23.3604 15.1299 22.7129 15.5928 22.1797C16.0615 21.6465 16.6211 21.2363 17.2715 20.9492C17.9219 20.6621 18.6484 20.5186 19.4512 20.5186C20.5176 20.5186 21.417 20.7119 22.1494 21.0986C22.8877 21.4854 23.459 22.0186 23.8633 22.6982C24.2734 23.3779 24.5195 24.1514 24.6016 25.0186H21.9648C21.9355 24.5029 21.833 24.0664 21.6572 23.709C21.4814 23.3457 21.2148 23.0732 20.8574 22.8916C20.5059 22.7041 20.0371 22.6104 19.4512 22.6104C19.0117 22.6104 18.6279 22.6924 18.2998 22.8564C17.9717 23.0205 17.6963 23.2695 17.4736 23.6035C17.251 23.9375 17.084 24.3594 16.9727 24.8691C16.8672 25.373 16.8145 25.9648 16.8145 26.6445V27.5498C16.8145 28.2119 16.8643 28.7949 16.9639 29.2988C17.0635 29.7969 17.2158 30.2188 17.4209 30.5645C17.6318 30.9043 17.9014 31.1621 18.2295 31.3379C18.5635 31.5078 18.9648 31.5928 19.4336 31.5928C19.9844 31.5928 20.4385 31.5049 20.7959 31.3291C21.1533 31.1533 21.4258 30.8926 21.6133 30.5469C21.8066 30.2012 21.9209 29.7705 21.9561 29.2549ZM35.4824 23.9902V33.5H32.9424V23.9902H35.4824ZM38.541 23.9902V25.9502H29.9277V23.9902H38.541ZM43.5947 33.6758C42.8564 33.6758 42.1943 33.5586 41.6084 33.3242C41.0225 33.084 40.5244 32.7529 40.1143 32.3311C39.71 31.9092 39.3994 31.4199 39.1826 30.8633C38.9658 30.3008 38.8574 29.7031 38.8574 29.0703V28.7188C38.8574 27.998 38.96 27.3389 39.165 26.7412C39.3701 26.1436 39.6631 25.625 40.0439 25.1855C40.4307 24.7461 40.8994 24.4092 41.4502 24.1748C42.001 23.9346 42.6221 23.8145 43.3135 23.8145C43.9873 23.8145 44.585 23.9258 45.1064 24.1484C45.6279 24.3711 46.0645 24.6875 46.416 25.0977C46.7734 25.5078 47.043 26 47.2246 26.5742C47.4062 27.1426 47.4971 27.7754 47.4971 28.4727V29.5273H39.9385V27.8398H45.0098V27.6465C45.0098 27.2949 44.9453 26.9814 44.8164 26.7061C44.6934 26.4248 44.5059 26.2021 44.2539 26.0381C44.002 25.874 43.6797 25.792 43.2871 25.792C42.9531 25.792 42.666 25.8652 42.4258 26.0117C42.1855 26.1582 41.9893 26.3633 41.8369 26.627C41.6904 26.8906 41.5791 27.2012 41.5029 27.5586C41.4326 27.9102 41.3975 28.2969 41.3975 28.7188V29.0703C41.3975 29.4512 41.4502 29.8027 41.5557 30.125C41.667 30.4473 41.8223 30.7256 42.0215 30.96C42.2266 31.1943 42.4727 31.376 42.7598 31.5049C43.0527 31.6338 43.3838 31.6982 43.7529 31.6982C44.21 31.6982 44.6348 31.6104 45.0273 31.4346C45.4258 31.2529 45.7686 30.9805 46.0557 30.6172L47.2861 31.9531C47.0869 32.2402 46.8145 32.5156 46.4688 32.7793C46.1289 33.043 45.7188 33.2598 45.2383 33.4297C44.7578 33.5938 44.21 33.6758 43.5947 33.6758ZM50.9775 23.9902L52.5508 26.8818L54.168 23.9902H56.8662L54.1768 28.6396L56.9893 33.5H54.2822L52.5684 30.4414L50.8545 33.5H48.1475L50.96 28.6396L48.2705 23.9902H50.9775ZM64.6094 27.8311V29.7998H59.7754V27.8311H64.6094ZM60.6191 23.9902V33.5H58.0879V23.9902H60.6191ZM66.3232 23.9902V33.5H63.7832V23.9902H66.3232ZM70.8145 29.9668L74.0049 23.9902H76.5361V33.5H74.0049V27.5146L70.8145 33.5H68.2832V23.9902H70.8145V29.9668ZM86.5029 23.9902V33.5H83.9629V23.9902H86.5029ZM85.3076 28.0596V30.0371C85.1143 30.1367 84.8652 30.2305 84.5605 30.3184C84.2559 30.4062 83.9336 30.4766 83.5938 30.5293C83.2598 30.5762 82.9492 30.5996 82.6621 30.5996C81.748 30.5996 80.9629 30.4736 80.3066 30.2217C79.6562 29.9697 79.1553 29.5742 78.8037 29.0352C78.4521 28.4961 78.2764 27.8047 78.2764 26.9609V23.9814H80.8076V26.9609C80.8076 27.3887 80.8721 27.7256 81.001 27.9717C81.1299 28.2119 81.3291 28.3818 81.5986 28.4814C81.874 28.5752 82.2285 28.6221 82.6621 28.6221C82.9668 28.6221 83.2627 28.5986 83.5498 28.5518C83.8369 28.5049 84.124 28.4404 84.4111 28.3584C84.6982 28.2764 84.9971 28.1768 85.3076 28.0596ZM92.8311 33.6758C92.0928 33.6758 91.4307 33.5586 90.8447 33.3242C90.2588 33.084 89.7607 32.7529 89.3506 32.3311C88.9463 31.9092 88.6357 31.4199 88.4189 30.8633C88.2021 30.3008 88.0938 29.7031 88.0938 29.0703V28.7188C88.0938 27.998 88.1963 27.3389 88.4014 26.7412C88.6064 26.1436 88.8994 25.625 89.2803 25.1855C89.667 24.7461 90.1357 24.4092 90.6865 24.1748C91.2373 23.9346 91.8584 23.8145 92.5498 23.8145C93.2236 23.8145 93.8213 23.9258 94.3428 24.1484C94.8643 24.3711 95.3008 24.6875 95.6523 25.0977C96.0098 25.5078 96.2793 26 96.4609 26.5742C96.6426 27.1426 96.7334 27.7754 96.7334 28.4727V29.5273H89.1748V27.8398H94.2461V27.6465C94.2461 27.2949 94.1816 26.9814 94.0527 26.7061C93.9297 26.4248 93.7422 26.2021 93.4902 26.0381C93.2383 25.874 92.916 25.792 92.5234 25.792C92.1895 25.792 91.9023 25.8652 91.6621 26.0117C91.4219 26.1582 91.2256 26.3633 91.0732 26.627C90.9268 26.8906 90.8154 27.2012 90.7393 27.5586C90.6689 27.9102 90.6338 28.2969 90.6338 28.7188V29.0703C90.6338 29.4512 90.6865 29.8027 90.792 30.125C90.9033 30.4473 91.0586 30.7256 91.2578 30.96C91.4629 31.1943 91.709 31.376 91.9961 31.5049C92.2891 31.6338 92.6201 31.6982 92.9893 31.6982C93.4463 31.6982 93.8711 31.6104 94.2637 31.4346C94.6621 31.2529 95.0049 30.9805 95.292 30.6172L96.5225 31.9531C96.3232 32.2402 96.0508 32.5156 95.7051 32.7793C95.3652 33.043 94.9551 33.2598 94.4746 33.4297C93.9941 33.5938 93.4463 33.6758 92.8311 33.6758ZM102.104 31.6982C102.414 31.6982 102.689 31.6396 102.93 31.5225C103.17 31.3994 103.357 31.2295 103.492 31.0127C103.633 30.79 103.706 30.5293 103.712 30.2305H106.094C106.088 30.8984 105.909 31.4932 105.558 32.0146C105.206 32.5303 104.734 32.9375 104.143 33.2363C103.551 33.5293 102.889 33.6758 102.156 33.6758C101.418 33.6758 100.773 33.5527 100.223 33.3066C99.6777 33.0605 99.2236 32.7207 98.8604 32.2871C98.4971 31.8477 98.2246 31.3379 98.043 30.7578C97.8613 30.1719 97.7705 29.5449 97.7705 28.877V28.6221C97.7705 27.9482 97.8613 27.3213 98.043 26.7412C98.2246 26.1553 98.4971 25.6455 98.8604 25.2119C99.2236 24.7725 99.6777 24.4297 100.223 24.1836C100.768 23.9375 101.406 23.8145 102.139 23.8145C102.918 23.8145 103.601 23.9639 104.187 24.2627C104.778 24.5615 105.241 24.9893 105.575 25.5459C105.915 26.0967 106.088 26.75 106.094 27.5059H103.712C103.706 27.1895 103.639 26.9023 103.51 26.6445C103.387 26.3867 103.205 26.1816 102.965 26.0293C102.73 25.8711 102.44 25.792 102.095 25.792C101.726 25.792 101.424 25.8711 101.189 26.0293C100.955 26.1816 100.773 26.3926 100.645 26.6621C100.516 26.9258 100.425 27.2275 100.372 27.5674C100.325 27.9014 100.302 28.2529 100.302 28.6221V28.877C100.302 29.2461 100.325 29.6006 100.372 29.9404C100.419 30.2803 100.507 30.582 100.636 30.8457C100.771 31.1094 100.955 31.3174 101.189 31.4697C101.424 31.6221 101.729 31.6982 102.104 31.6982ZM110.26 23.9902V33.5H107.729V23.9902H110.26ZM116.438 23.9902L112.343 29.9404H109.812L109.504 27.6025H111.183L113.23 23.9902H116.438ZM113.345 33.5L111.007 29.4834L113.213 28.2617L116.737 33.5H113.345ZM120.209 29.9668L123.399 23.9902H125.931V33.5H123.399V27.5146L120.209 33.5H117.678V23.9902H120.209V29.9668ZM133.665 30.5908L136.161 23.9902H138.227L134.518 33.5H132.812L129.121 23.9902H131.187L133.665 30.5908ZM130.58 23.9902V33.5H128.049V23.9902H130.58ZM136.812 33.5V23.9902H139.343V33.5H136.812ZM152.438 23.9902V25.9766H147.833V23.9902H152.438ZM148.562 23.9902V33.5H146.031V23.9902H148.562ZM154.284 23.9902V33.5H151.744V23.9902H154.284ZM161.368 31.3555V27.1191C161.368 26.8145 161.318 26.5537 161.219 26.3369C161.119 26.1143 160.964 25.9414 160.753 25.8184C160.548 25.6953 160.281 25.6338 159.953 25.6338C159.672 25.6338 159.429 25.6836 159.224 25.7832C159.019 25.877 158.86 26.0146 158.749 26.1963C158.638 26.3721 158.582 26.5801 158.582 26.8203H156.051C156.051 26.416 156.145 26.0322 156.332 25.6689C156.52 25.3057 156.792 24.9863 157.149 24.7109C157.507 24.4297 157.932 24.21 158.424 24.0518C158.922 23.8936 159.479 23.8145 160.094 23.8145C160.832 23.8145 161.488 23.9375 162.062 24.1836C162.637 24.4297 163.088 24.7988 163.416 25.291C163.75 25.7832 163.917 26.3984 163.917 27.1367V31.2061C163.917 31.7275 163.949 32.1553 164.014 32.4893C164.078 32.8174 164.172 33.1045 164.295 33.3506V33.5H161.737C161.614 33.2422 161.521 32.9199 161.456 32.5332C161.397 32.1406 161.368 31.748 161.368 31.3555ZM161.702 27.708L161.72 29.1406H160.305C159.971 29.1406 159.681 29.1787 159.435 29.2549C159.188 29.3311 158.986 29.4395 158.828 29.5801C158.67 29.7148 158.553 29.873 158.477 30.0547C158.406 30.2363 158.371 30.4355 158.371 30.6523C158.371 30.8691 158.421 31.0654 158.521 31.2412C158.62 31.4111 158.764 31.5459 158.951 31.6455C159.139 31.7393 159.358 31.7861 159.61 31.7861C159.991 31.7861 160.322 31.71 160.604 31.5576C160.885 31.4053 161.102 31.2178 161.254 30.9951C161.412 30.7725 161.494 30.5615 161.5 30.3623L162.168 31.4346C162.074 31.6748 161.945 31.9238 161.781 32.1816C161.623 32.4395 161.421 32.6826 161.175 32.9111C160.929 33.1338 160.633 33.3184 160.287 33.4648C159.941 33.6055 159.531 33.6758 159.057 33.6758C158.453 33.6758 157.905 33.5557 157.413 33.3154C156.927 33.0693 156.54 32.7324 156.253 32.3047C155.972 31.8711 155.831 31.3789 155.831 30.8281C155.831 30.3301 155.925 29.8877 156.112 29.501C156.3 29.1143 156.575 28.7891 156.938 28.5254C157.308 28.2559 157.768 28.0537 158.318 27.9189C158.869 27.7783 159.508 27.708 160.234 27.708H161.702ZM168.399 25.8184V37.1562H165.868V23.9902H168.215L168.399 25.8184ZM174.42 28.6396V28.8242C174.42 29.5156 174.338 30.1572 174.174 30.749C174.016 31.3408 173.781 31.8564 173.471 32.2959C173.16 32.7295 172.773 33.0693 172.311 33.3154C171.854 33.5557 171.326 33.6758 170.729 33.6758C170.148 33.6758 169.645 33.5586 169.217 33.3242C168.789 33.0898 168.429 32.7617 168.136 32.3398C167.849 31.9121 167.617 31.417 167.441 30.8545C167.266 30.292 167.131 29.6885 167.037 29.0439V28.5605C167.131 27.8691 167.266 27.2363 167.441 26.6621C167.617 26.082 167.849 25.5811 168.136 25.1592C168.429 24.7314 168.786 24.4004 169.208 24.166C169.636 23.9316 170.137 23.8145 170.711 23.8145C171.314 23.8145 171.845 23.9287 172.302 24.1572C172.765 24.3857 173.151 24.7139 173.462 25.1416C173.778 25.5693 174.016 26.0791 174.174 26.6709C174.338 27.2627 174.42 27.9189 174.42 28.6396ZM171.88 28.8242V28.6396C171.88 28.2354 171.845 27.8633 171.774 27.5234C171.71 27.1777 171.604 26.876 171.458 26.6182C171.317 26.3604 171.13 26.1611 170.896 26.0205C170.667 25.874 170.389 25.8008 170.061 25.8008C169.715 25.8008 169.419 25.8564 169.173 25.9678C168.933 26.0791 168.736 26.2402 168.584 26.4512C168.432 26.6621 168.317 26.9141 168.241 27.207C168.165 27.5 168.118 27.8311 168.101 28.2002V29.4219C168.13 29.8555 168.212 30.2451 168.347 30.5908C168.481 30.9307 168.689 31.2002 168.971 31.3994C169.252 31.5986 169.621 31.6982 170.078 31.6982C170.412 31.6982 170.693 31.625 170.922 31.4785C171.15 31.3262 171.335 31.1182 171.476 30.8545C171.622 30.5908 171.725 30.2861 171.783 29.9404C171.848 29.5947 171.88 29.2227 171.88 28.8242ZM180.361 23.9902V33.5H177.821V23.9902H180.361ZM183.42 23.9902V25.9502H174.807V23.9902H183.42ZM191.225 27.8311V29.7998H186.391V27.8311H191.225ZM187.234 23.9902V33.5H184.703V23.9902H187.234ZM192.938 23.9902V33.5H190.398V23.9902H192.938ZM199.284 33.6758C198.546 33.6758 197.884 33.5586 197.298 33.3242C196.712 33.084 196.214 32.7529 195.804 32.3311C195.399 31.9092 195.089 31.4199 194.872 30.8633C194.655 30.3008 194.547 29.7031 194.547 29.0703V28.7188C194.547 27.998 194.649 27.3389 194.854 26.7412C195.06 26.1436 195.353 25.625 195.733 25.1855C196.12 24.7461 196.589 24.4092 197.14 24.1748C197.69 23.9346 198.312 23.8145 199.003 23.8145C199.677 23.8145 200.274 23.9258 200.796 24.1484C201.317 24.3711 201.754 24.6875 202.105 25.0977C202.463 25.5078 202.732 26 202.914 26.5742C203.096 27.1426 203.187 27.7754 203.187 28.4727V29.5273H195.628V27.8398H200.699V27.6465C200.699 27.2949 200.635 26.9814 200.506 26.7061C200.383 26.4248 200.195 26.2021 199.943 26.0381C199.691 25.874 199.369 25.792 198.977 25.792C198.643 25.792 198.355 25.8652 198.115 26.0117C197.875 26.1582 197.679 26.3633 197.526 26.627C197.38 26.8906 197.269 27.2012 197.192 27.5586C197.122 27.9102 197.087 28.2969 197.087 28.7188V29.0703C197.087 29.4512 197.14 29.8027 197.245 30.125C197.356 30.4473 197.512 30.7256 197.711 30.96C197.916 31.1943 198.162 31.376 198.449 31.5049C198.742 31.6338 199.073 31.6982 199.442 31.6982C199.899 31.6982 200.324 31.6104 200.717 31.4346C201.115 31.2529 201.458 30.9805 201.745 30.6172L202.976 31.9531C202.776 32.2402 202.504 32.5156 202.158 32.7793C201.818 33.043 201.408 33.2598 200.928 33.4297C200.447 33.5938 199.899 33.6758 199.284 33.6758ZM207.159 25.8184V37.1562H204.628V23.9902H206.975L207.159 25.8184ZM213.18 28.6396V28.8242C213.18 29.5156 213.098 30.1572 212.934 30.749C212.775 31.3408 212.541 31.8564 212.23 32.2959C211.92 32.7295 211.533 33.0693 211.07 33.3154C210.613 33.5557 210.086 33.6758 209.488 33.6758C208.908 33.6758 208.404 33.5586 207.977 33.3242C207.549 33.0898 207.188 32.7617 206.896 32.3398C206.608 31.9121 206.377 31.417 206.201 30.8545C206.025 30.292 205.891 29.6885 205.797 29.0439V28.5605C205.891 27.8691 206.025 27.2363 206.201 26.6621C206.377 26.082 206.608 25.5811 206.896 25.1592C207.188 24.7314 207.546 24.4004 207.968 24.166C208.396 23.9316 208.896 23.8145 209.471 23.8145C210.074 23.8145 210.604 23.9287 211.062 24.1572C211.524 24.3857 211.911 24.7139 212.222 25.1416C212.538 25.5693 212.775 26.0791 212.934 26.6709C213.098 27.2627 213.18 27.9189 213.18 28.6396ZM210.64 28.8242V28.6396C210.64 28.2354 210.604 27.8633 210.534 27.5234C210.47 27.1777 210.364 26.876 210.218 26.6182C210.077 26.3604 209.89 26.1611 209.655 26.0205C209.427 25.874 209.148 25.8008 208.82 25.8008C208.475 25.8008 208.179 25.8564 207.933 25.9678C207.692 26.0791 207.496 26.2402 207.344 26.4512C207.191 26.6621 207.077 26.9141 207.001 27.207C206.925 27.5 206.878 27.8311 206.86 28.2002V29.4219C206.89 29.8555 206.972 30.2451 207.106 30.5908C207.241 30.9307 207.449 31.2002 207.73 31.3994C208.012 31.5986 208.381 31.6982 208.838 31.6982C209.172 31.6982 209.453 31.625 209.682 31.4785C209.91 31.3262 210.095 31.1182 210.235 30.8545C210.382 30.5908 210.484 30.2861 210.543 29.9404C210.607 29.5947 210.64 29.2227 210.64 28.8242ZM214.349 28.8418V28.6572C214.349 27.96 214.448 27.3184 214.647 26.7324C214.847 26.1406 215.137 25.6279 215.518 25.1943C215.898 24.7607 216.367 24.4238 216.924 24.1836C217.48 23.9375 218.119 23.8145 218.84 23.8145C219.561 23.8145 220.202 23.9375 220.765 24.1836C221.327 24.4238 221.799 24.7607 222.18 25.1943C222.566 25.6279 222.859 26.1406 223.059 26.7324C223.258 27.3184 223.357 27.96 223.357 28.6572V28.8418C223.357 29.5332 223.258 30.1748 223.059 30.7666C222.859 31.3525 222.566 31.8652 222.18 32.3047C221.799 32.7383 221.33 33.0752 220.773 33.3154C220.217 33.5557 219.578 33.6758 218.857 33.6758C218.137 33.6758 217.495 33.5557 216.933 33.3154C216.376 33.0752 215.904 32.7383 215.518 32.3047C215.137 31.8652 214.847 31.3525 214.647 30.7666C214.448 30.1748 214.349 29.5332 214.349 28.8418ZM216.88 28.6572V28.8418C216.88 29.2402 216.915 29.6123 216.985 29.958C217.056 30.3037 217.167 30.6084 217.319 30.8721C217.478 31.1299 217.683 31.332 217.935 31.4785C218.187 31.625 218.494 31.6982 218.857 31.6982C219.209 31.6982 219.511 31.625 219.763 31.4785C220.015 31.332 220.217 31.1299 220.369 30.8721C220.521 30.6084 220.633 30.3037 220.703 29.958C220.779 29.6123 220.817 29.2402 220.817 28.8418V28.6572C220.817 28.2705 220.779 27.9072 220.703 27.5674C220.633 27.2217 220.519 26.917 220.36 26.6533C220.208 26.3838 220.006 26.1729 219.754 26.0205C219.502 25.8682 219.197 25.792 218.84 25.792C218.482 25.792 218.178 25.8682 217.926 26.0205C217.68 26.1729 217.478 26.3838 217.319 26.6533C217.167 26.917 217.056 27.2217 216.985 27.5674C216.915 27.9072 216.88 28.2705 216.88 28.6572ZM230.696 30.5908L233.192 23.9902H235.258L231.549 33.5H229.844L226.152 23.9902H228.218L230.696 30.5908ZM227.611 23.9902V33.5H225.08V23.9902H227.611ZM233.843 33.5V23.9902H236.374V33.5H233.843ZM83.3389 50.2549H85.9668C85.9141 51.1162 85.6768 51.8809 85.2549 52.5488C84.8389 53.2168 84.2559 53.7383 83.5059 54.1133C82.7617 54.4883 81.8652 54.6758 80.8164 54.6758C79.9961 54.6758 79.2607 54.5352 78.6104 54.2539C77.96 53.9668 77.4033 53.5566 76.9404 53.0234C76.4834 52.4902 76.1348 51.8457 75.8945 51.0898C75.6543 50.334 75.5342 49.4873 75.5342 48.5498V47.6621C75.5342 46.7246 75.6572 45.8779 75.9033 45.1221C76.1553 44.3604 76.5127 43.7129 76.9756 43.1797C77.4443 42.6465 78.0039 42.2363 78.6543 41.9492C79.3047 41.6621 80.0312 41.5186 80.834 41.5186C81.9004 41.5186 82.7998 41.7119 83.5322 42.0986C84.2705 42.4854 84.8418 43.0186 85.2461 43.6982C85.6562 44.3779 85.9023 45.1514 85.9844 46.0186H83.3477C83.3184 45.5029 83.2158 45.0664 83.04 44.709C82.8643 44.3457 82.5977 44.0732 82.2402 43.8916C81.8887 43.7041 81.4199 43.6104 80.834 43.6104C80.3945 43.6104 80.0107 43.6924 79.6826 43.8564C79.3545 44.0205 79.0791 44.2695 78.8564 44.6035C78.6338 44.9375 78.4668 45.3594 78.3555 45.8691C78.25 46.373 78.1973 46.9648 78.1973 47.6445V48.5498C78.1973 49.2119 78.2471 49.7949 78.3467 50.2988C78.4463 50.7969 78.5986 51.2188 78.8037 51.5645C79.0146 51.9043 79.2842 52.1621 79.6123 52.3379C79.9463 52.5078 80.3477 52.5928 80.8164 52.5928C81.3672 52.5928 81.8213 52.5049 82.1787 52.3291C82.5361 52.1533 82.8086 51.8926 82.9961 51.5469C83.1895 51.2012 83.3037 50.7705 83.3389 50.2549ZM87.1357 49.8418V49.6572C87.1357 48.96 87.2354 48.3184 87.4346 47.7324C87.6338 47.1406 87.9238 46.6279 88.3047 46.1943C88.6855 45.7607 89.1543 45.4238 89.7109 45.1836C90.2676 44.9375 90.9062 44.8145 91.627 44.8145C92.3477 44.8145 92.9893 44.9375 93.5518 45.1836C94.1143 45.4238 94.5859 45.7607 94.9668 46.1943C95.3535 46.6279 95.6465 47.1406 95.8457 47.7324C96.0449 48.3184 96.1445 48.96 96.1445 49.6572V49.8418C96.1445 50.5332 96.0449 51.1748 95.8457 51.7666C95.6465 52.3525 95.3535 52.8652 94.9668 53.3047C94.5859 53.7383 94.1172 54.0752 93.5605 54.3154C93.0039 54.5557 92.3652 54.6758 91.6445 54.6758C90.9238 54.6758 90.2822 54.5557 89.7197 54.3154C89.1631 54.0752 88.6914 53.7383 88.3047 53.3047C87.9238 52.8652 87.6338 52.3525 87.4346 51.7666C87.2354 51.1748 87.1357 50.5332 87.1357 49.8418ZM89.667 49.6572V49.8418C89.667 50.2402 89.7021 50.6123 89.7725 50.958C89.8428 51.3037 89.9541 51.6084 90.1064 51.8721C90.2646 52.1299 90.4697 52.332 90.7217 52.4785C90.9736 52.625 91.2812 52.6982 91.6445 52.6982C91.9961 52.6982 92.2979 52.625 92.5498 52.4785C92.8018 52.332 93.0039 52.1299 93.1562 51.8721C93.3086 51.6084 93.4199 51.3037 93.4902 50.958C93.5664 50.6123 93.6045 50.2402 93.6045 49.8418V49.6572C93.6045 49.2705 93.5664 48.9072 93.4902 48.5674C93.4199 48.2217 93.3057 47.917 93.1475 47.6533C92.9951 47.3838 92.793 47.1729 92.541 47.0205C92.2891 46.8682 91.9844 46.792 91.627 46.792C91.2695 46.792 90.9648 46.8682 90.7129 47.0205C90.4668 47.1729 90.2646 47.3838 90.1064 47.6533C89.9541 47.917 89.8428 48.2217 89.7725 48.5674C89.7021 48.9072 89.667 49.2705 89.667 49.6572ZM100.179 47.0205V54.5H97.6475V44.9902H100.021L100.179 47.0205ZM99.8096 49.4111H99.124C99.124 48.708 99.2148 48.0752 99.3965 47.5127C99.5781 46.9443 99.833 46.4609 100.161 46.0625C100.489 45.6582 100.879 45.3506 101.33 45.1396C101.787 44.9229 102.297 44.8145 102.859 44.8145C103.305 44.8145 103.712 44.8789 104.081 45.0078C104.45 45.1367 104.767 45.3418 105.03 45.623C105.3 45.9043 105.505 46.2764 105.646 46.7393C105.792 47.2021 105.865 47.7676 105.865 48.4355V54.5H103.316V48.4268C103.316 48.0049 103.258 47.6768 103.141 47.4424C103.023 47.208 102.851 47.0439 102.622 46.9502C102.399 46.8506 102.124 46.8008 101.796 46.8008C101.456 46.8008 101.16 46.8682 100.908 47.0029C100.662 47.1377 100.457 47.3252 100.293 47.5654C100.135 47.7998 100.015 48.0752 99.9326 48.3916C99.8506 48.708 99.8096 49.0479 99.8096 49.4111ZM112.448 44.9902V46.7832H106.911V44.9902H112.448ZM108.282 42.6436H110.813V51.6348C110.813 51.9102 110.849 52.1211 110.919 52.2676C110.995 52.4141 111.106 52.5166 111.253 52.5752C111.399 52.6279 111.584 52.6543 111.807 52.6543C111.965 52.6543 112.105 52.6484 112.229 52.6367C112.357 52.6191 112.466 52.6016 112.554 52.584L112.562 54.4473C112.346 54.5176 112.111 54.5732 111.859 54.6143C111.607 54.6553 111.329 54.6758 111.024 54.6758C110.468 54.6758 109.981 54.585 109.565 54.4033C109.155 54.2158 108.839 53.917 108.616 53.5068C108.394 53.0967 108.282 52.5576 108.282 51.8896V42.6436ZM118.267 54.6758C117.528 54.6758 116.866 54.5586 116.28 54.3242C115.694 54.084 115.196 53.7529 114.786 53.3311C114.382 52.9092 114.071 52.4199 113.854 51.8633C113.638 51.3008 113.529 50.7031 113.529 50.0703V49.7188C113.529 48.998 113.632 48.3389 113.837 47.7412C114.042 47.1436 114.335 46.625 114.716 46.1855C115.103 45.7461 115.571 45.4092 116.122 45.1748C116.673 44.9346 117.294 44.8145 117.985 44.8145C118.659 44.8145 119.257 44.9258 119.778 45.1484C120.3 45.3711 120.736 45.6875 121.088 46.0977C121.445 46.5078 121.715 47 121.896 47.5742C122.078 48.1426 122.169 48.7754 122.169 49.4727V50.5273H114.61V48.8398H119.682V48.6465C119.682 48.2949 119.617 47.9814 119.488 47.7061C119.365 47.4248 119.178 47.2021 118.926 47.0381C118.674 46.874 118.352 46.792 117.959 46.792C117.625 46.792 117.338 46.8652 117.098 47.0117C116.857 47.1582 116.661 47.3633 116.509 47.627C116.362 47.8906 116.251 48.2012 116.175 48.5586C116.104 48.9102 116.069 49.2969 116.069 49.7188V50.0703C116.069 50.4512 116.122 50.8027 116.228 51.125C116.339 51.4473 116.494 51.7256 116.693 51.96C116.898 52.1943 117.145 52.376 117.432 52.5049C117.725 52.6338 118.056 52.6982 118.425 52.6982C118.882 52.6982 119.307 52.6104 119.699 52.4346C120.098 52.2529 120.44 51.9805 120.728 51.6172L121.958 52.9531C121.759 53.2402 121.486 53.5156 121.141 53.7793C120.801 54.043 120.391 54.2598 119.91 54.4297C119.43 54.5938 118.882 54.6758 118.267 54.6758ZM126.089 47.0205V54.5H123.558V44.9902H125.931L126.089 47.0205ZM125.72 49.4111H125.034C125.034 48.708 125.125 48.0752 125.307 47.5127C125.488 46.9443 125.743 46.4609 126.071 46.0625C126.399 45.6582 126.789 45.3506 127.24 45.1396C127.697 44.9229 128.207 44.8145 128.77 44.8145C129.215 44.8145 129.622 44.8789 129.991 45.0078C130.36 45.1367 130.677 45.3418 130.94 45.623C131.21 45.9043 131.415 46.2764 131.556 46.7393C131.702 47.2021 131.775 47.7676 131.775 48.4355V54.5H129.227V48.4268C129.227 48.0049 129.168 47.6768 129.051 47.4424C128.934 47.208 128.761 47.0439 128.532 46.9502C128.31 46.8506 128.034 46.8008 127.706 46.8008C127.366 46.8008 127.07 46.8682 126.818 47.0029C126.572 47.1377 126.367 47.3252 126.203 47.5654C126.045 47.7998 125.925 48.0752 125.843 48.3916C125.761 48.708 125.72 49.0479 125.72 49.4111ZM138.358 44.9902V46.7832H132.821V44.9902H138.358ZM134.192 42.6436H136.724V51.6348C136.724 51.9102 136.759 52.1211 136.829 52.2676C136.905 52.4141 137.017 52.5166 137.163 52.5752C137.31 52.6279 137.494 52.6543 137.717 52.6543C137.875 52.6543 138.016 52.6484 138.139 52.6367C138.268 52.6191 138.376 52.6016 138.464 52.584L138.473 54.4473C138.256 54.5176 138.021 54.5732 137.77 54.6143C137.518 54.6553 137.239 54.6758 136.935 54.6758C136.378 54.6758 135.892 54.585 135.476 54.4033C135.065 54.2158 134.749 53.917 134.526 53.5068C134.304 53.0967 134.192 52.5576 134.192 51.8896V42.6436ZM152.975 46.915V48.9717H146.295V46.915H152.975ZM147.077 41.7031V54.5H144.44V41.7031H147.077ZM154.855 41.7031V54.5H152.228V41.7031H154.855ZM162.616 52.2236V44.9902H165.147V54.5H162.766L162.616 52.2236ZM162.897 50.2725L163.645 50.2549C163.645 50.8877 163.571 51.4766 163.425 52.0215C163.278 52.5605 163.059 53.0293 162.766 53.4277C162.473 53.8203 162.104 54.1279 161.658 54.3506C161.213 54.5674 160.688 54.6758 160.085 54.6758C159.622 54.6758 159.194 54.6113 158.802 54.4824C158.415 54.3477 158.081 54.1396 157.8 53.8584C157.524 53.5713 157.308 53.2051 157.149 52.7598C156.997 52.3086 156.921 51.7666 156.921 51.1338V44.9902H159.452V51.1514C159.452 51.4326 159.484 51.6699 159.549 51.8633C159.619 52.0566 159.716 52.2148 159.839 52.3379C159.962 52.4609 160.105 52.5488 160.27 52.6016C160.439 52.6543 160.627 52.6807 160.832 52.6807C161.354 52.6807 161.764 52.5752 162.062 52.3643C162.367 52.1533 162.581 51.8662 162.704 51.5029C162.833 51.1338 162.897 50.7236 162.897 50.2725ZM167.081 41H169.612V52.3203L169.357 54.5H167.081V41ZM175.633 49.6484V49.833C175.633 50.542 175.557 51.1924 175.404 51.7842C175.258 52.376 175.029 52.8887 174.719 53.3223C174.408 53.75 174.021 54.084 173.559 54.3242C173.102 54.5586 172.562 54.6758 171.941 54.6758C171.361 54.6758 170.857 54.5586 170.43 54.3242C170.008 54.0898 169.653 53.7588 169.366 53.3311C169.079 52.9033 168.848 52.4023 168.672 51.8281C168.496 51.2539 168.364 50.627 168.276 49.9473V49.543C168.364 48.8633 168.496 48.2363 168.672 47.6621C168.848 47.0879 169.079 46.5869 169.366 46.1592C169.653 45.7314 170.008 45.4004 170.43 45.166C170.852 44.9316 171.35 44.8145 171.924 44.8145C172.551 44.8145 173.096 44.9346 173.559 45.1748C174.027 45.4092 174.414 45.7432 174.719 46.1768C175.029 46.6045 175.258 47.1143 175.404 47.7061C175.557 48.292 175.633 48.9395 175.633 49.6484ZM173.102 49.833V49.6484C173.102 49.2617 173.072 48.8984 173.014 48.5586C172.961 48.2129 172.867 47.9111 172.732 47.6533C172.598 47.3896 172.413 47.1816 172.179 47.0293C171.95 46.877 171.654 46.8008 171.291 46.8008C170.945 46.8008 170.652 46.8594 170.412 46.9766C170.172 47.0938 169.973 47.2578 169.814 47.4688C169.662 47.6797 169.548 47.9316 169.472 48.2246C169.396 48.5117 169.349 48.8281 169.331 49.1738V50.3252C169.349 50.7881 169.425 51.1982 169.56 51.5557C169.7 51.9072 169.911 52.1855 170.192 52.3906C170.479 52.5898 170.852 52.6895 171.309 52.6895C171.666 52.6895 171.962 52.6191 172.196 52.4785C172.431 52.3379 172.612 52.1387 172.741 51.8809C172.876 51.623 172.97 51.3213 173.022 50.9756C173.075 50.624 173.102 50.2432 173.102 49.833Z" fill="white"/>
</svg>
