<svg width="131" height="40" viewBox="0 0 131 40" fill="none" xmlns="http://www.w3.org/2000/svg">
<path fill-rule="evenodd" clip-rule="evenodd" d="M0 4C0 1.79086 1.79086 0 4 0H127C129.209 0 131 1.79086 131 4V5C129.895 5 129 5.89543 129 7C129 8.10457 129.895 9 131 9V12C129.895 12 129 12.8954 129 14C129 15.1046 129.895 16 131 16V18C129.895 18 129 18.8954 129 20C129 21.1046 129.895 22 131 22V25C129.895 25 129 25.8954 129 27C129 28.1046 129.895 29 131 29V32C129.895 32 129 32.8954 129 34C129 35.1046 129.895 36 131 36C131 38.2091 129.209 40 127 40H4C1.79086 40 0 38.2091 0 36C1.10457 36 2 35.1046 2 34C2 32.8954 1.10457 32 0 32V29C1.10457 29 2 28.1046 2 27C2 25.8954 1.10457 25 0 25V22C1.10457 22 2 21.1046 2 20C2 18.8954 1.10457 18 0 18V16C1.10457 16 2 15.1046 2 14C2 12.8954 1.10457 12 0 12V9C1.10457 9 2 8.10457 2 7C2 5.89543 1.10457 5 0 5V4Z" fill="#651FFF"/>
<path d="M33.5342 22.7549H36.1621C36.1094 23.6162 35.8721 24.3809 35.4502 25.0488C35.0342 25.7168 34.4512 26.2383 33.7012 26.6133C32.957 26.9883 32.0605 27.1758 31.0117 27.1758C30.1914 27.1758 29.4561 27.0352 28.8057 26.7539C28.1553 26.4668 27.5986 26.0566 27.1357 25.5234C26.6787 24.9902 26.3301 24.3457 26.0898 23.5898C25.8496 22.834 25.7295 21.9873 25.7295 21.0498V20.1621C25.7295 19.2246 25.8525 18.3779 26.0986 17.6221C26.3506 16.8604 26.708 16.2129 27.1709 15.6797C27.6396 15.1465 28.1992 14.7363 28.8496 14.4492C29.5 14.1621 30.2266 14.0186 31.0293 14.0186C32.0957 14.0186 32.9951 14.2119 33.7275 14.5986C34.4658 14.9854 35.0371 15.5186 35.4414 16.1982C35.8516 16.8779 36.0977 17.6514 36.1797 18.5186H33.543C33.5137 18.0029 33.4111 17.5664 33.2354 17.209C33.0596 16.8457 32.793 16.5732 32.4355 16.3916C32.084 16.2041 31.6152 16.1104 31.0293 16.1104C30.5898 16.1104 30.2061 16.1924 29.8779 16.3564C29.5498 16.5205 29.2744 16.7695 29.0518 17.1035C28.8291 17.4375 28.6621 17.8594 28.5508 18.3691C28.4453 18.873 28.3926 19.4648 28.3926 20.1445V21.0498C28.3926 21.7119 28.4424 22.2949 28.542 22.7988C28.6416 23.2969 28.7939 23.7188 28.999 24.0645C29.21 24.4043 29.4795 24.6621 29.8076 24.8379C30.1416 25.0078 30.543 25.0928 31.0117 25.0928C31.5625 25.0928 32.0166 25.0049 32.374 24.8291C32.7314 24.6533 33.0039 24.3926 33.1914 24.0469C33.3848 23.7012 33.499 23.2705 33.5342 22.7549ZM40.2578 23.4668L43.4482 17.4902H45.9795V27H43.4482V21.0146L40.2578 27H37.7266V17.4902H40.2578V23.4668ZM52.7734 17.4902V27H50.2334V17.4902H52.7734ZM55.832 17.4902V19.4502H47.2188V17.4902H55.832ZM60.0508 25.9277L62.5732 17.4902H65.2891L61.4658 28.4326C61.3838 28.6729 61.2725 28.9307 61.1318 29.2061C60.9971 29.4814 60.8125 29.7422 60.5781 29.9883C60.3496 30.2402 60.0596 30.4453 59.708 30.6035C59.3623 30.7617 58.9375 30.8408 58.4336 30.8408C58.1934 30.8408 57.9971 30.8262 57.8447 30.7969C57.6924 30.7676 57.5107 30.7266 57.2998 30.6738V28.8193C57.3643 28.8193 57.4316 28.8193 57.502 28.8193C57.5723 28.8252 57.6396 28.8281 57.7041 28.8281C58.0381 28.8281 58.3105 28.79 58.5215 28.7139C58.7324 28.6377 58.9023 28.5205 59.0312 28.3623C59.1602 28.21 59.2627 28.0107 59.3389 27.7646L60.0508 25.9277ZM58.9961 17.4902L61.0615 24.3809L61.4219 27.0615L59.6992 27.2461L56.2803 17.4902H58.9961ZM71.292 24.8555V20.6191C71.292 20.3145 71.2422 20.0537 71.1426 19.8369C71.043 19.6143 70.8877 19.4414 70.6768 19.3184C70.4717 19.1953 70.2051 19.1338 69.877 19.1338C69.5957 19.1338 69.3525 19.1836 69.1475 19.2832C68.9424 19.377 68.7842 19.5146 68.6729 19.6963C68.5615 19.8721 68.5059 20.0801 68.5059 20.3203H65.9746C65.9746 19.916 66.0684 19.5322 66.2559 19.1689C66.4434 18.8057 66.7158 18.4863 67.0732 18.2109C67.4307 17.9297 67.8555 17.71 68.3477 17.5518C68.8457 17.3936 69.4023 17.3145 70.0176 17.3145C70.7559 17.3145 71.4121 17.4375 71.9863 17.6836C72.5605 17.9297 73.0117 18.2988 73.3398 18.791C73.6738 19.2832 73.8408 19.8984 73.8408 20.6367V24.7061C73.8408 25.2275 73.873 25.6553 73.9375 25.9893C74.002 26.3174 74.0957 26.6045 74.2188 26.8506V27H71.6611C71.5381 26.7422 71.4443 26.4199 71.3799 26.0332C71.3213 25.6406 71.292 25.248 71.292 24.8555ZM71.626 21.208L71.6436 22.6406H70.2285C69.8945 22.6406 69.6045 22.6787 69.3584 22.7549C69.1123 22.8311 68.9102 22.9395 68.752 23.0801C68.5938 23.2148 68.4766 23.373 68.4004 23.5547C68.3301 23.7363 68.2949 23.9355 68.2949 24.1523C68.2949 24.3691 68.3447 24.5654 68.4443 24.7412C68.5439 24.9111 68.6875 25.0459 68.875 25.1455C69.0625 25.2393 69.2822 25.2861 69.5342 25.2861C69.915 25.2861 70.2461 25.21 70.5273 25.0576C70.8086 24.9053 71.0254 24.7178 71.1777 24.4951C71.3359 24.2725 71.418 24.0615 71.4238 23.8623L72.0918 24.9346C71.998 25.1748 71.8691 25.4238 71.7051 25.6816C71.5469 25.9395 71.3447 26.1826 71.0986 26.4111C70.8525 26.6338 70.5566 26.8184 70.2109 26.9648C69.8652 27.1055 69.4551 27.1758 68.9805 27.1758C68.377 27.1758 67.8291 27.0557 67.3369 26.8154C66.8506 26.5693 66.4639 26.2324 66.1768 25.8047C65.8955 25.3711 65.7549 24.8789 65.7549 24.3281C65.7549 23.8301 65.8486 23.3877 66.0361 23.001C66.2236 22.6143 66.499 22.2891 66.8623 22.0254C67.2314 21.7559 67.6914 21.5537 68.2422 21.4189C68.793 21.2783 69.4316 21.208 70.1582 21.208H71.626ZM75.7832 27V17.4902H78.3145V25.0225H81.4961V17.4902H84.0361V27H75.7832ZM85.46 25.0312L85.293 29.8213H82.9375V27H81.874V25.0312H85.46ZM89.2656 23.4668L92.4561 17.4902H94.9873V27H92.4561V21.0146L89.2656 27H86.7344V17.4902H89.2656V23.4668ZM98.9863 22.2539H101.553L98.9072 27H96.3496L98.9863 22.2539ZM100.691 17.4902H104.866V27H102.335V19.4502H100.691C100.346 19.4502 100.059 19.5146 99.8301 19.6436C99.6016 19.7666 99.4316 19.9277 99.3203 20.127C99.2148 20.3203 99.1621 20.5195 99.1621 20.7246C99.1621 20.9238 99.2148 21.1172 99.3203 21.3047C99.4258 21.4922 99.5898 21.6475 99.8125 21.7705C100.035 21.8936 100.313 21.9551 100.647 21.9551H103.275V23.6777H100.647C100.021 23.6777 99.458 23.6016 98.96 23.4492C98.4678 23.2969 98.0459 23.0859 97.6943 22.8164C97.3486 22.541 97.082 22.2217 96.8945 21.8584C96.7129 21.4893 96.6221 21.085 96.6221 20.6455C96.6221 20.1885 96.7158 19.7695 96.9033 19.3887C97.0908 19.0078 97.3604 18.6738 97.7119 18.3867C98.0635 18.0996 98.4883 17.8799 98.9863 17.7275C99.4902 17.5693 100.059 17.4902 100.691 17.4902Z" fill="white"/>
</svg>
