<svg width="131" height="40" viewBox="0 0 131 40" fill="none" xmlns="http://www.w3.org/2000/svg">
<path fill-rule="evenodd" clip-rule="evenodd" d="M0 4C0 1.79086 1.79086 0 4 0H127C129.209 0 131 1.79086 131 4V5C129.895 5 129 5.89543 129 7C129 8.10457 129.895 9 131 9V12C129.895 12 129 12.8954 129 14C129 15.1046 129.895 16 131 16V18C129.895 18 129 18.8954 129 20C129 21.1046 129.895 22 131 22V25C129.895 25 129 25.8954 129 27C129 28.1046 129.895 29 131 29V32C129.895 32 129 32.8954 129 34C129 35.1046 129.895 36 131 36C131 38.2091 129.209 40 127 40H4C1.79086 40 0 38.2091 0 36C1.10457 36 2 35.1046 2 34C2 32.8954 1.10457 32 0 32V29C1.10457 29 2 28.1046 2 27C2 25.8954 1.10457 25 0 25V22C1.10457 22 2 21.1046 2 20C2 18.8954 1.10457 18 0 18V16C1.10457 16 2 15.1046 2 14C2 12.8954 1.10457 12 0 12V9C1.10457 9 2 8.10457 2 7C2 5.89543 1.10457 5 0 5V4Z" fill="#651FFF"/>
<path d="M31.2666 22.4912V27H28.6299V14.2031H33.6221C34.583 14.2031 35.4268 14.3789 36.1533 14.7305C36.8857 15.082 37.4482 15.583 37.8408 16.2334C38.2334 16.8779 38.4297 17.6133 38.4297 18.4395C38.4297 19.6934 37.999 20.6836 37.1377 21.4102C36.2822 22.1309 35.0957 22.4912 33.5781 22.4912H31.2666ZM31.2666 20.3555H33.6221C34.3193 20.3555 34.8496 20.1914 35.2129 19.8633C35.582 19.5352 35.7666 19.0664 35.7666 18.457C35.7666 17.8301 35.582 17.3232 35.2129 16.9365C34.8438 16.5498 34.334 16.3506 33.6836 16.3389H31.2666V20.3555ZM44.3359 27.1758C42.9414 27.1758 41.8047 26.748 40.9258 25.8926C40.0527 25.0371 39.6162 23.8975 39.6162 22.4736V22.2275C39.6162 21.2725 39.8008 20.4199 40.1699 19.6699C40.5391 18.9141 41.0605 18.334 41.7344 17.9297C42.4141 17.5195 43.1875 17.3145 44.0547 17.3145C45.3555 17.3145 46.3779 17.7246 47.1221 18.5449C47.8721 19.3652 48.2471 20.5283 48.2471 22.0342V23.0713H42.1914C42.2734 23.6924 42.5195 24.1904 42.9297 24.5654C43.3457 24.9404 43.8701 25.1279 44.5029 25.1279C45.4814 25.1279 46.2461 24.7734 46.7969 24.0645L48.0449 25.4619C47.6641 26.001 47.1484 26.4229 46.498 26.7275C45.8477 27.0264 45.127 27.1758 44.3359 27.1758ZM44.0459 19.3711C43.542 19.3711 43.1318 19.541 42.8154 19.8809C42.5049 20.2207 42.3057 20.707 42.2178 21.3398H45.751V21.1377C45.7393 20.5752 45.5869 20.1416 45.2939 19.8369C45.001 19.5264 44.585 19.3711 44.0459 19.3711ZM52.2373 17.4902V24.9521H54.8477V17.4902H57.3965V24.9521H60.0068V17.4902H62.5469V27H49.6973V17.4902H52.2373ZM68.9629 27.1758C67.5684 27.1758 66.4316 26.748 65.5527 25.8926C64.6797 25.0371 64.2432 23.8975 64.2432 22.4736V22.2275C64.2432 21.2725 64.4277 20.4199 64.7969 19.6699C65.166 18.9141 65.6875 18.334 66.3613 17.9297C67.041 17.5195 67.8145 17.3145 68.6816 17.3145C69.9824 17.3145 71.0049 17.7246 71.749 18.5449C72.499 19.3652 72.874 20.5283 72.874 22.0342V23.0713H66.8184C66.9004 23.6924 67.1465 24.1904 67.5566 24.5654C67.9727 24.9404 68.4971 25.1279 69.1299 25.1279C70.1084 25.1279 70.873 24.7734 71.4238 24.0645L72.6719 25.4619C72.291 26.001 71.7754 26.4229 71.125 26.7275C70.4746 27.0264 69.7539 27.1758 68.9629 27.1758ZM68.6729 19.3711C68.1689 19.3711 67.7588 19.541 67.4424 19.8809C67.1318 20.2207 66.9326 20.707 66.8447 21.3398H70.3779V21.1377C70.3662 20.5752 70.2139 20.1416 69.9209 19.8369C69.6279 19.5264 69.2119 19.3711 68.6729 19.3711ZM82.5684 27H80.0195V23.3438H76.8643V27H74.3242V17.4902H76.8643V21.3047H80.0195V17.4902H82.5684V27ZM90.2676 17.4902H92.8076V27H90.2676V21.1289L87.0859 27H84.5371V17.4902H87.0859V23.3525L90.2676 17.4902ZM99.127 27.1758C97.7324 27.1758 96.5957 26.748 95.7168 25.8926C94.8438 25.0371 94.4072 23.8975 94.4072 22.4736V22.2275C94.4072 21.2725 94.5918 20.4199 94.9609 19.6699C95.3301 18.9141 95.8516 18.334 96.5254 17.9297C97.2051 17.5195 97.9785 17.3145 98.8457 17.3145C100.146 17.3145 101.169 17.7246 101.913 18.5449C102.663 19.3652 103.038 20.5283 103.038 22.0342V23.0713H96.9824C97.0645 23.6924 97.3105 24.1904 97.7207 24.5654C98.1367 24.9404 98.6611 25.1279 99.2939 25.1279C100.272 25.1279 101.037 24.7734 101.588 24.0645L102.836 25.4619C102.455 26.001 101.939 26.4229 101.289 26.7275C100.639 27.0264 99.918 27.1758 99.127 27.1758ZM98.8369 19.3711C98.333 19.3711 97.9229 19.541 97.6064 19.8809C97.2959 20.2207 97.0967 20.707 97.0088 21.3398H100.542V21.1377C100.53 20.5752 100.378 20.1416 100.085 19.8369C99.792 19.5264 99.376 19.3711 98.8369 19.3711Z" fill="white"/>
</svg>
